<?xml version="1.0" encoding="utf-8"?>
<!-- Generator: Adobe Illustrator 17.0.2, SVG Export Plug-In . SVG Version: 6.00 Build 0)  -->
<!DOCTYPE svg PUBLIC "-//W3C//DTD SVG 1.1//EN" "http://www.w3.org/Graphics/SVG/1.1/DTD/svg11.dtd">
<svg version="1.1" id="Capa_1" xmlns="http://www.w3.org/2000/svg" xmlns:xlink="http://www.w3.org/1999/xlink" x="0px" y="0px"
	 width="180px" height="60px" viewBox="0 0 180 60" enable-background="new 0 0 180 60" xml:space="preserve">
<g>
	<g>
		<path d="M91.741,34.202V7.926h5.367c2.153,0,3.817,0.596,4.991,1.791c1.174,1.196,1.761,2.882,1.761,5.061
			c0,1.31-0.233,2.457-0.692,3.448c-0.459,0.985-1.168,1.84-2.125,2.554c1.074,0.617,1.87,1.444,2.384,2.48
			c0.513,1.035,0.771,2.337,0.771,3.912c0,2.398-0.525,4.169-1.578,5.315c-1.05,1.142-2.682,1.716-4.894,1.716H91.741z
			 M95.758,18.869h1.639c0.742,0,1.318-0.317,1.73-0.945c0.412-0.632,0.618-1.517,0.618-2.654c0-1.247-0.208-2.151-0.624-2.71
			c-0.422-0.559-1.105-0.834-2.051-0.834h-1.312V18.869z M95.758,30.398h1.748c0.87,0,1.505-0.301,1.911-0.905
			c0.404-0.607,0.607-1.555,0.607-2.847c0-1.43-0.228-2.448-0.679-3.06c-0.451-0.609-1.213-0.915-2.276-0.915h-1.312V30.398z"/>
		<path d="M105.955,13.993c0-2.07,0.565-3.692,1.691-4.864c1.125-1.172,2.682-1.762,4.666-1.762c1.876,0,3.364,0.602,4.46,1.806
			c1.097,1.207,1.642,2.849,1.642,4.93v13.459c0,2.303-0.54,4.077-1.623,5.325c-1.084,1.249-2.624,1.87-4.622,1.87
			c-2.023,0-3.562-0.618-4.622-1.861c-1.06-1.243-1.591-3.057-1.591-5.443V13.993z M114.241,28.398V13.737
			c0-0.907-0.176-1.588-0.526-2.04c-0.351-0.456-0.868-0.682-1.559-0.682c-0.69,0-1.21,0.226-1.559,0.682
			c-0.351,0.453-0.527,1.133-0.527,2.04v14.661c0,0.907,0.176,1.592,0.527,2.054c0.35,0.458,0.869,0.688,1.559,0.688
			c0.691,0,1.208-0.231,1.559-0.688C114.065,29.991,114.241,29.305,114.241,28.398z"/>
		<path d="M121.352,27.46v-13.45c0-2.073,0.563-3.698,1.689-4.875c1.125-1.178,2.683-1.769,4.672-1.769
			c1.911,0,3.366,0.571,4.358,1.712c0.994,1.144,1.491,2.822,1.491,5.04v2.431h-3.895v-2.794c0-0.916-0.176-1.6-0.531-2.053
			c-0.353-0.459-0.878-0.688-1.571-0.688c-0.694,0-1.221,0.229-1.573,0.688c-0.353,0.453-0.529,1.136-0.529,2.053v14.648
			c0,0.905,0.177,1.588,0.529,2.048c0.353,0.458,0.879,0.688,1.573,0.688c0.693,0,1.218-0.231,1.571-0.688
			c0.354-0.46,0.531-1.143,0.531-2.048v-4.098h-2.467V20.97h6.361v13.233h-1.937l-0.779-1.827c-0.45,0.813-0.988,1.413-1.62,1.801
			c-0.631,0.386-1.392,0.579-2.29,0.579c-1.807,0-3.19-0.62-4.147-1.868C121.829,31.641,121.352,29.836,121.352,27.46z"/>
		<path d="M135.92,13.993c0-2.07,0.564-3.692,1.689-4.864c1.124-1.172,2.681-1.762,4.668-1.762c1.875,0,3.364,0.602,4.457,1.806
			c1.094,1.207,1.644,2.849,1.644,4.93v13.459c0,2.303-0.54,4.077-1.625,5.325c-1.083,1.249-2.624,1.87-4.622,1.87
			c-2.02,0-3.564-0.618-4.621-1.861c-1.06-1.243-1.589-3.057-1.589-5.443V13.993z M144.202,28.398V13.737
			c0-0.907-0.175-1.588-0.523-2.04c-0.353-0.456-0.871-0.682-1.561-0.682c-0.69,0-1.211,0.226-1.561,0.682
			c-0.35,0.453-0.525,1.133-0.525,2.04v14.661c0,0.907,0.175,1.592,0.525,2.054c0.35,0.458,0.871,0.688,1.561,0.688
			c0.69,0,1.208-0.231,1.561-0.688C144.027,29.991,144.202,29.305,144.202,28.398z"/>
		<path d="M149.782,11.727V7.926h12.46v3.801h-4.202v22.476h-4.049V11.727H149.782z"/>
		<path d="M162.242,34.202l4.33-26.277h5.284l4.296,26.277h-4.149l-0.816-5.656h-4.09l-0.871,5.656H162.242z M170.036,6.596h-2.939
			l1.761-4.02h4.605L170.036,6.596z M167.609,24.802h3.085l-1.377-10.988h-0.259L167.609,24.802z"/>
		<path d="M133.538,35.373c-1.625,0-3.489,0.54-4.752,1.374c-1.199,0.79-2.273,1.902-3.116,3.228
			c-1.191-1.471-3.014-1.898-5.028-1.144c-1.758,0.659-2.88,1.628-3.339,2.888c-0.896,2.457,0.827,5.52,2.348,8.224
			c0.293,0.523,0.578,1.029,0.831,1.506c0.082,0.159,0.281,0.347,0.748,0.347c0.613,0,1.606-0.358,1.851-0.762
			c0.111-0.181,0.064-0.328,0.025-0.403c-0.298-0.57-0.69-1.19-1.104-1.847c-1.546-2.457-3.467-5.514-1.753-7.899
			c0.467-0.646,0.94-0.974,1.41-0.974c1.144,0,2.257,2.012,2.555,3.458c0.029,0.159,0.169,0.426,0.717,0.426
			c0.574,0,1.785-0.373,1.939-0.881c0.487-1.651,1.367-3.219,2.545-4.536c0.81-0.899,2.004-1.458,3.119-1.458
			c0.773,0,1.48,0.269,2.039,0.771c0.829,0.742,0.49,2.248,0.1,3.479c-0.668,2.129-1.951,4.081-3.197,5.969l-0.29,0.443
			c-0.938,1.433-1.898,3.011-2.928,4.826c-0.148,0.259-0.309,0.528-0.475,0.801c-0.615,1.018-1.309,2.172-1.536,3.306
			c-0.026,0.13,0.004,0.259,0.086,0.362c0.126,0.15,0.365,0.228,0.707,0.228c0.57,0,1.739-0.258,1.857-0.855
			c0.276-1.381,1.199-2.847,2.015-4.143c0.261-0.42,0.52-0.827,0.744-1.217c0.681-1.171,1.427-2.329,2.15-3.451
			c0.361-0.559,0.72-1.119,1.076-1.681l0.201-0.325c1.399-2.196,3.995-6.285,2.112-8.595
			C136.418,35.882,135.151,35.373,133.538,35.373z"/>
		<polygon points="99.828,42.095 94.126,42.095 94.126,36.13 91.741,36.13 91.741,50.996 94.126,50.996 94.126,44.4 99.828,44.4 
			99.828,50.996 102.227,50.996 102.227,36.13 99.828,36.13 		"/>
		<path d="M112.544,45.323c0,1.186-0.248,2.098-0.743,2.715c-0.487,0.605-1.175,0.901-2.106,0.901c-0.927,0-1.612-0.295-2.098-0.901
			c-0.493-0.617-0.74-1.528-0.74-2.715V36.13h-2.397v9.282c0,1.762,0.478,3.184,1.425,4.238c0.949,1.057,2.232,1.597,3.81,1.597
			c1.58,0,2.866-0.54,3.822-1.597c0.946-1.049,1.428-2.476,1.428-4.238V36.13h-2.401V45.323z"/>
		<path d="M144.537,35.898c-1.578,0-2.863,0.534-3.814,1.591c-0.944,1.052-1.424,2.479-1.424,4.251v9.257h2.398v-6.584h5.69v6.584
			h2.395v-9.257c0-1.772-0.481-3.203-1.427-4.251C147.399,36.432,146.115,35.898,144.537,35.898z M141.698,41.778
			c0-1.193,0.25-2.107,0.74-2.724c0.484-0.602,1.172-0.904,2.1-0.904c0.93,0,1.617,0.301,2.101,0.904
			c0.498,0.617,0.749,1.533,0.749,2.724v0.328h-5.69V41.778z"/>
		<path d="M161.271,47.329l-4.716-9.786c-0.253-0.514-0.537-0.904-0.851-1.165c-0.326-0.267-0.7-0.403-1.115-0.403
			c-0.578,0-1.036,0.214-1.352,0.639c-0.304,0.401-0.457,0.974-0.457,1.703v12.679h2.293V39.774l4.733,9.85
			c0.243,0.509,0.532,0.904,0.858,1.161c0.34,0.273,0.732,0.409,1.162,0.409c0.559,0,1.001-0.219,1.316-0.653
			c0.298-0.409,0.448-0.972,0.448-1.678V36.13h-2.32V47.329z"/>
		<path d="M175.217,37.488c-0.958-1.057-2.242-1.591-3.82-1.591c-1.58,0-2.861,0.534-3.814,1.591
			c-0.946,1.048-1.424,2.479-1.424,4.251v9.257h2.398v-6.584h5.688v6.584h2.398v-9.257
			C176.644,39.967,176.163,38.536,175.217,37.488z M168.558,41.778c0-1.193,0.25-2.107,0.743-2.724
			c0.482-0.602,1.168-0.904,2.097-0.904c0.932,0,1.619,0.301,2.104,0.904c0.492,0.617,0.745,1.533,0.745,2.724v0.328h-5.688V41.778z
			"/>
	</g>
	<g>
		<rect x="74.524" y="2.751" width="1.002" height="54.673"/>
	</g>
	<g>
		<g>
			<g>
				<g>
					<g>
						<path d="M8.039,49.817H7.015l-0.401-1.062H4.742l-0.386,1.062H3.356l1.814-4.666h1.005L8.039,49.817z M6.306,47.961
							l-0.643-1.717l-0.629,1.717H6.306z"/>
					</g>
				</g>
				<g>
					<g>
						<polygon points="8.292,49.814 8.292,45.19 9.235,45.19 9.235,49.026 11.575,49.026 11.575,49.814 						"/>
					</g>
				</g>
				<g>
					<g>
						<path d="M14.96,48.091l0.913,0.294c-0.139,0.51-0.373,0.887-0.698,1.142c-0.325,0.244-0.738,0.368-1.239,0.368
							c-0.622,0-1.129-0.212-1.532-0.635c-0.398-0.423-0.596-1.001-0.596-1.737c0-0.773,0.198-1.375,0.6-1.805
							c0.404-0.428,0.93-0.643,1.584-0.643c0.571,0,1.036,0.166,1.392,0.503c0.209,0.201,0.372,0.489,0.479,0.86l-0.938,0.226
							c-0.051-0.242-0.167-0.438-0.342-0.574c-0.176-0.139-0.389-0.211-0.635-0.211c-0.351,0-0.631,0.128-0.848,0.375
							c-0.215,0.247-0.323,0.646-0.323,1.202c0,0.59,0.106,1.005,0.318,1.26c0.212,0.246,0.487,0.376,0.829,0.376
							c0.25,0,0.467-0.083,0.646-0.244C14.751,48.689,14.881,48.436,14.96,48.091"/>
					</g>
				</g>
				<g>
					<g>
						<path d="M20.618,49.817h-1.024l-0.409-1.062h-1.865l-0.39,1.062H15.93l1.818-4.666h0.999L20.618,49.817z M18.882,47.961
							l-0.643-1.717l-0.632,1.717H18.882z"/>
					</g>
				</g>
				<g>
					<g>
						<polygon points="20.866,49.814 20.866,45.19 21.809,45.19 21.809,49.026 24.15,49.026 24.15,49.814 						"/>
					</g>
				</g>
				<g>
					<g>
						<path d="M24.545,45.151h1.72c0.389,0,0.687,0.03,0.891,0.089c0.27,0.078,0.506,0.225,0.699,0.431
							c0.198,0.205,0.345,0.456,0.449,0.752c0.1,0.301,0.151,0.666,0.151,1.104c0,0.384-0.048,0.716-0.142,0.993
							c-0.12,0.343-0.286,0.615-0.503,0.824c-0.164,0.162-0.384,0.287-0.662,0.373c-0.206,0.065-0.485,0.097-0.834,0.097h-1.772
							V45.151z M25.489,45.943v3.083h0.701c0.265,0,0.453-0.016,0.57-0.045c0.156-0.039,0.281-0.1,0.382-0.194
							c0.1-0.09,0.181-0.242,0.248-0.448c0.061-0.211,0.094-0.49,0.094-0.852c0-0.361-0.033-0.637-0.094-0.831
							c-0.067-0.192-0.154-0.343-0.27-0.451c-0.115-0.108-0.258-0.181-0.434-0.222c-0.136-0.026-0.392-0.041-0.774-0.041H25.489z"/>
					</g>
				</g>
				<g>
					<g>
						<path d="M29.191,44.722l0.437-0.949h1.001l-0.871,0.949H29.191z M28.955,45.151h0.941v4.663h-0.941V45.151z"/>
					</g>
				</g>
				<g>
					<g>
						<path d="M34.728,49.817h-1.026l-0.404-1.062h-1.865l-0.389,1.062h-0.999l1.816-4.666h1.005L34.728,49.817z M32.995,47.961
							l-0.645-1.717l-0.631,1.717H32.995z"/>
					</g>
				</g>
				<g>
					<g>
						<polygon points="36.237,49.814 36.237,45.151 37.645,45.151 38.49,48.334 39.329,45.151 40.739,45.151 40.739,49.814 
							39.865,49.814 39.865,46.144 38.936,49.814 38.029,49.814 37.11,46.144 37.108,49.814 						"/>
					</g>
				</g>
				<g>
					<g>
						<path d="M45.614,49.817h-1.022l-0.412-1.062h-1.864l-0.389,1.062h-0.998l1.812-4.666h1.004L45.614,49.817z M43.878,47.961
							l-0.643-1.717l-0.634,1.717H43.878z"/>
					</g>
				</g>
				<g>
					<g>
						<polygon points="46.46,49.814 46.46,47.854 44.754,45.151 45.859,45.151 46.963,47.001 48.035,45.151 49.122,45.151 
							47.408,47.861 47.408,49.814 						"/>
					</g>
				</g>
				<g>
					<g>
						<path d="M49.122,47.513c0-0.475,0.073-0.874,0.212-1.194c0.108-0.242,0.253-0.454,0.433-0.64
							c0.183-0.19,0.389-0.331,0.606-0.423c0.289-0.122,0.624-0.181,1.005-0.181c0.685,0,1.238,0.212,1.652,0.638
							c0.41,0.426,0.612,1.019,0.612,1.78c0,0.751-0.201,1.344-0.607,1.764c-0.411,0.426-0.961,0.639-1.642,0.639
							c-0.699,0-1.246-0.212-1.661-0.635C49.325,48.837,49.122,48.253,49.122,47.513 M50.093,47.482
							c0,0.525,0.123,0.929,0.365,1.199c0.243,0.271,0.557,0.411,0.933,0.411c0.37,0,0.681-0.139,0.919-0.409
							c0.242-0.269,0.362-0.676,0.362-1.216c0-0.531-0.114-0.932-0.351-1.194c-0.234-0.261-0.548-0.393-0.93-0.393
							c-0.389,0-0.707,0.134-0.943,0.401C50.211,46.544,50.093,46.945,50.093,47.482z"/>
					</g>
				</g>
				<g>
					<g>
						<path d="M54.111,49.814v-4.663h1.981c0.5,0,0.863,0.042,1.088,0.127c0.228,0.079,0.41,0.231,0.54,0.446
							c0.14,0.217,0.208,0.459,0.208,0.738c0,0.348-0.103,0.635-0.305,0.867c-0.209,0.225-0.512,0.371-0.921,0.429
							c0.2,0.118,0.372,0.248,0.503,0.392c0.133,0.142,0.309,0.393,0.531,0.756l0.574,0.908h-1.132l-0.673-1.016
							c-0.247-0.359-0.414-0.584-0.496-0.685c-0.094-0.094-0.187-0.154-0.283-0.192c-0.108-0.033-0.264-0.05-0.481-0.05h-0.187
							v1.943H54.111z M55.058,47.126h0.695c0.453,0,0.728-0.02,0.843-0.056c0.119-0.039,0.201-0.104,0.267-0.2
							c0.062-0.091,0.092-0.211,0.092-0.35c0-0.154-0.041-0.28-0.128-0.378c-0.08-0.097-0.193-0.161-0.351-0.186
							c-0.07-0.006-0.301-0.014-0.684-0.014h-0.734V47.126z"/>
					</g>
				</g>
			</g>
			<g>
				<g>
					<g>
						<rect x="48.575" y="56.48" width="0.877" height="0.881"/>
					</g>
				</g>
				<g>
					<g>
						<path d="M6.345,52.763h1.694c0.384,0,0.67,0.027,0.873,0.084c0.267,0.083,0.496,0.222,0.691,0.422
							c0.194,0.203,0.337,0.451,0.437,0.744c0.101,0.295,0.148,0.653,0.148,1.082c0,0.382-0.047,0.706-0.137,0.977
							c-0.115,0.334-0.278,0.606-0.492,0.809c-0.162,0.159-0.381,0.281-0.651,0.367c-0.204,0.069-0.478,0.098-0.818,0.098H6.345
							V52.763z M7.274,53.539v3.028h0.69c0.261,0,0.448-0.014,0.564-0.041c0.15-0.039,0.273-0.102,0.373-0.192
							c0.1-0.091,0.178-0.239,0.244-0.439c0.061-0.203,0.094-0.489,0.094-0.841c0-0.353-0.033-0.623-0.094-0.812
							c-0.066-0.19-0.152-0.34-0.264-0.445c-0.111-0.106-0.256-0.179-0.429-0.214c-0.128-0.03-0.381-0.045-0.762-0.045H7.274z"/>
					</g>
				</g>
				<g>
					<g>
						<polygon points="10.711,57.346 10.711,52.763 14.105,52.763 14.105,53.539 11.639,53.539 11.639,54.552 13.932,54.552 
							13.932,55.329 11.639,55.329 11.639,56.567 14.196,56.567 14.196,57.346 						"/>
					</g>
				</g>
				<g>
					<g>
						<path d="M16.223,52.763h1.837c0.357,0,0.628,0.012,0.809,0.044c0.178,0.034,0.337,0.092,0.478,0.19
							c0.14,0.095,0.256,0.223,0.351,0.378c0.092,0.164,0.139,0.34,0.139,0.537c0,0.215-0.056,0.414-0.172,0.592
							c-0.116,0.183-0.273,0.314-0.467,0.403c0.278,0.084,0.492,0.223,0.638,0.414c0.156,0.201,0.228,0.431,0.228,0.695
							c0,0.211-0.048,0.412-0.145,0.609c-0.097,0.195-0.23,0.355-0.395,0.473c-0.17,0.12-0.381,0.192-0.624,0.22
							c-0.153,0.012-0.527,0.027-1.115,0.028h-1.563V52.763z M17.154,53.522v1.058h0.603c0.36,0,0.584-0.005,0.674-0.012
							c0.155-0.019,0.28-0.077,0.37-0.166c0.094-0.091,0.139-0.209,0.139-0.356c0-0.143-0.04-0.257-0.118-0.348
							c-0.077-0.09-0.194-0.14-0.351-0.158c-0.087-0.012-0.353-0.019-0.788-0.019H17.154z M17.154,55.348v1.216h0.854
							c0.333,0,0.547-0.003,0.639-0.022c0.136-0.028,0.25-0.091,0.336-0.183c0.086-0.097,0.131-0.226,0.131-0.387
							c0-0.141-0.034-0.259-0.1-0.354c-0.069-0.097-0.164-0.162-0.289-0.209c-0.13-0.047-0.403-0.061-0.823-0.061H17.154z"/>
					</g>
				</g>
				<g>
					<g>
						<path d="M20.39,55.079c0-0.465,0.07-0.855,0.205-1.174c0.106-0.233,0.251-0.442,0.429-0.631
							c0.181-0.181,0.376-0.318,0.596-0.409c0.284-0.122,0.612-0.183,0.987-0.183c0.677,0,1.216,0.208,1.619,0.631
							c0.408,0.415,0.61,0.998,0.61,1.748c0,0.737-0.201,1.317-0.604,1.731c-0.403,0.418-0.94,0.63-1.614,0.63
							c-0.679,0-1.224-0.212-1.622-0.623C20.589,56.384,20.39,55.81,20.39,55.079 M21.345,55.05c0,0.518,0.119,0.91,0.359,1.177
							c0.239,0.27,0.543,0.404,0.913,0.404c0.368,0,0.671-0.134,0.908-0.398c0.237-0.265,0.353-0.665,0.353-1.194
							c0-0.524-0.114-0.919-0.345-1.175c-0.228-0.257-0.535-0.385-0.916-0.385c-0.381,0-0.69,0.129-0.923,0.39
							C21.462,54.132,21.345,54.522,21.345,55.05z"/>
					</g>
				</g>
				<g>
					<g>
						<path d="M27.424,55.669v-0.78h1.995v1.821c-0.197,0.188-0.475,0.355-0.843,0.498c-0.368,0.144-0.742,0.215-1.118,0.215
							c-0.481,0-0.898-0.101-1.255-0.304c-0.354-0.198-0.623-0.488-0.802-0.862c-0.176-0.376-0.269-0.78-0.269-1.219
							c0-0.479,0.103-0.904,0.301-1.271c0.198-0.373,0.492-0.657,0.876-0.857c0.293-0.148,0.662-0.228,1.099-0.228
							c0.57,0,1.015,0.122,1.336,0.357c0.319,0.237,0.521,0.567,0.613,0.99l-0.916,0.175c-0.069-0.225-0.189-0.4-0.365-0.534
							c-0.181-0.131-0.4-0.193-0.668-0.193c-0.403,0-0.723,0.126-0.962,0.381c-0.24,0.259-0.359,0.637-0.359,1.141
							c0,0.543,0.119,0.951,0.364,1.219c0.24,0.276,0.554,0.412,0.947,0.412c0.195,0,0.39-0.039,0.584-0.113
							c0.197-0.078,0.359-0.167,0.498-0.276v-0.573H27.424z"/>
					</g>
				</g>
				<g>
					<g>
						<path d="M29.817,55.079c0-0.465,0.067-0.855,0.208-1.174c0.103-0.233,0.247-0.442,0.428-0.631
							c0.183-0.181,0.378-0.318,0.593-0.409c0.287-0.122,0.614-0.183,0.99-0.183c0.668,0,1.213,0.208,1.623,0.631
							c0.4,0.415,0.603,0.998,0.603,1.748c0,0.737-0.203,1.317-0.601,1.731c-0.401,0.418-0.94,0.63-1.616,0.63
							c-0.681,0-1.224-0.212-1.623-0.623C30.015,56.384,29.817,55.81,29.817,55.079 M30.771,55.05c0,0.518,0.118,0.91,0.359,1.177
							c0.24,0.27,0.545,0.404,0.91,0.404c0.368,0,0.67-0.134,0.915-0.398c0.239-0.265,0.353-0.665,0.353-1.194
							c0-0.524-0.112-0.919-0.342-1.175c-0.234-0.257-0.542-0.385-0.926-0.385c-0.378,0-0.687,0.129-0.918,0.39
							C30.888,54.132,30.771,54.522,30.771,55.05z"/>
					</g>
				</g>
				<g>
					<g>
						<polygon points="35.756,57.346 35.756,53.539 34.395,53.539 34.395,52.763 38.039,52.763 38.039,53.539 36.68,53.539 
							36.68,57.346 						"/>
					</g>
				</g>
				<g>
					<g>
						<path d="M42.5,57.346h-1.01l-0.398-1.043h-1.837l-0.373,1.043h-0.985l1.784-4.583h0.983L42.5,57.346z M40.794,55.523
							l-0.638-1.694l-0.61,1.694H40.794z M39.835,52.341l0.432-0.935h0.982l-0.857,0.935H39.835z"/>
					</g>
				</g>
				<g>
					<g>
						<path d="M44.225,52.763h1.695c0.379,0,0.673,0.027,0.874,0.084c0.267,0.083,0.496,0.222,0.69,0.422
							c0.189,0.203,0.337,0.451,0.439,0.744c0.098,0.295,0.148,0.656,0.148,1.082c0,0.382-0.047,0.706-0.14,0.977
							c-0.114,0.334-0.283,0.606-0.493,0.809c-0.159,0.159-0.376,0.281-0.648,0.367c-0.208,0.069-0.482,0.098-0.821,0.098h-1.744
							V52.763z M45.152,53.539v3.028h0.69c0.264,0,0.446-0.014,0.562-0.041c0.15-0.039,0.276-0.102,0.376-0.192
							c0.097-0.091,0.178-0.239,0.24-0.439c0.064-0.203,0.094-0.489,0.094-0.841c0-0.353-0.03-0.623-0.094-0.812
							c-0.062-0.19-0.15-0.34-0.265-0.445c-0.109-0.106-0.254-0.179-0.425-0.214c-0.128-0.03-0.383-0.045-0.76-0.045H45.152z"/>
					</g>
				</g>
				<g>
					<g>
						<path d="M53.034,55.652l0.894,0.284c-0.141,0.503-0.367,0.879-0.684,1.121c-0.322,0.24-0.727,0.367-1.221,0.367
							c-0.61,0-1.107-0.208-1.497-0.623c-0.396-0.417-0.593-0.985-0.593-1.706c0-0.763,0.198-1.358,0.593-1.773
							c0.393-0.428,0.915-0.639,1.555-0.639c0.559,0,1.018,0.169,1.368,0.501c0.209,0.191,0.368,0.478,0.471,0.844l-0.918,0.222
							c-0.05-0.242-0.169-0.429-0.342-0.567c-0.17-0.136-0.379-0.206-0.623-0.206c-0.347,0-0.621,0.118-0.832,0.362
							c-0.212,0.247-0.315,0.64-0.315,1.185c0,0.578,0.102,0.991,0.312,1.238c0.208,0.247,0.476,0.368,0.812,0.368
							c0.25,0,0.46-0.083,0.637-0.237C52.829,56.238,52.959,55.989,53.034,55.652"/>
					</g>
				</g>
				<g>
					<g>
						<rect x="54.442" y="56.491" width="0.879" height="0.877"/>
					</g>
				</g>
			</g>
		</g>
		<g>
			<g>
				<path fill-rule="evenodd" clip-rule="evenodd" d="M14.325,2.751c5.081,2.696,11.302,2.71,16.395,0.04
					c5.136,2.638,11.289,2.669,16.397-0.04v29.388c0,3.597-3.003,6.452-6.667,6.452c-3.548,0-6.675,0.528-9.73,2.446
					c-3.052-1.954-6.21-2.446-9.763-2.446c-3.671,0-6.633-2.855-6.633-6.452V2.751z"/>
			</g>
			<g>
				<path fill-rule="evenodd" clip-rule="evenodd" fill="#FFFFFF" d="M19.917,29.134c0,2.346,1.795,4.268,4.273,4.268
					c2.416,0,4.404,0.264,6.503,1.576c2.082-1.303,4.06-1.576,6.46-1.576c2.477,0,4.58-1.922,4.58-4.268l0.022-19.758
					c-2.665,1.388-8.376,0.476-10.929-0.854c-2.524,1.318-8.3,2.26-10.929,0.854"/>
			</g>
			<g>
				<path fill-rule="evenodd" clip-rule="evenodd" d="M33.354,28.486c-0.05,0.483,0.08,0.966,0.459,1.366
					c0.333,0.403,0.788,0.604,1.249,0.604c0.039-0.481-0.122-1.004-0.46-1.406C34.223,28.686,33.768,28.486,33.354,28.486
					 M39.693,24.743c0.125-0.203,0.667-0.359,0.918,0l0.084-0.08c0,0-0.203-0.565-0.626-0.485c0,0,0.254-0.682,0.125-0.76
					c-0.125-0.045-0.623,0.481-0.623,0.481c-0.129-0.403-0.757-0.403-0.757-0.403v0.159c0.42,0.042,0.506,0.604,0.376,0.807
					C39.152,24.58,39.607,24.86,39.693,24.743z M39.191,26.514c0.459-0.726,0.459-1.53,0.083-1.73
					c-0.373-0.204-1.082,0.159-1.538,0.887c-0.504,0.682-0.381,1.286,0,1.486C38.106,27.398,38.691,27.237,39.191,26.514z
					 M28.093,28.486c0.042,0.483-0.083,0.966-0.459,1.366c-0.335,0.403-0.791,0.604-1.252,0.604
					c-0.042-0.481,0.126-1.004,0.461-1.406C27.219,28.686,27.676,28.486,28.093,28.486z M21.751,24.743
					c-0.125-0.203-0.668-0.359-0.92,0l-0.081-0.08c0,0,0.206-0.565,0.626-0.485c0,0-0.25-0.682-0.126-0.76
					c0.126-0.045,0.623,0.481,0.623,0.481c0.128-0.403,0.755-0.403,0.755-0.403v0.159c-0.418,0.042-0.503,0.604-0.375,0.807
					C22.294,24.58,21.834,24.86,21.751,24.743z M22.254,26.514c-0.459-0.726-0.459-1.53-0.084-1.73
					c0.373-0.204,1.082,0.159,1.542,0.887c0.503,0.682,0.376,1.286,0,1.486C23.337,27.398,22.753,27.237,22.254,26.514z
					 M25.632,31.825c-0.164-0.792,0.273-2.549-1.725-3.946c-1.141,1.314-1.653,0.325-1.653,0.325
					c0.304-0.109,1.037-0.289,1.41-0.848c-0.926,0.515-1.934,0.37-2.371-0.32c-0.461-0.723-0.081-1.772,0.834-2.332
					c0.919-0.567,2.045-0.445,2.502,0.281c0.445,0.701,0.108,1.666-0.745,2.24c0.615,0.051,1.414-0.79,1.414-0.79
					c0.351,0.648-0.289,1.012-0.79,1.188c1.958,1.335,1.964,3.665,2.082,4.241L25.632,31.825z M35.809,31.825
					c0.166-0.792-0.273-2.549,1.73-3.946c1.138,1.314,1.652,0.325,1.652,0.325c-0.303-0.109-1.03-0.289-1.411-0.848
					c0.927,0.515,1.933,0.37,2.373-0.32c0.459-0.723,0.087-1.772-0.832-2.332c-0.92-0.567-2.047-0.445-2.504,0.281
					c-0.445,0.701-0.112,1.666,0.749,2.24c-0.621,0.051-1.421-0.79-1.421-0.79c-0.351,0.648,0.29,1.012,0.788,1.188
					c-1.951,1.335-1.956,3.665-2.082,4.241L35.809,31.825z"/>
			</g>
			<g>
				<path fill-rule="evenodd" clip-rule="evenodd" d="M29.711,13.115c0-0.24,0.164-0.403,0.412-0.403
					c0.211,0,0.376,0.162,0.376,0.403c0,0.201-0.166,0.361-0.376,0.361C29.874,13.475,29.711,13.316,29.711,13.115 M31.626,11.905
					l0.837-1.286l-1.296,0.484l-0.459-1.165l-0.501,1.165l-1.335-0.484l0.877,1.286H31.626z M32.11,23.678
					c-0.69-0.531,0.084-0.76,0.267-0.584c1.712,1.446,3.256,0.443,3.256,0.443c-1.213-0.406-1.792-1.773-1.792-1.773
					c2.501,1.452,4.419-0.198,4.419-0.198c-1.663,0.281-2.961-1.289-2.961-1.289c2.585,0.603,4.377-1.127,4.377-1.127
					c-0.957,0.08-3.334-0.924-3.334-0.924c3.798-0.119,4.13-2.821,4.173-2.821c-1.046,0.687-3.84,0.364-3.84,0.364
					c3.966-1.407,3.673-4.666,3.673-4.666c-0.84,1.247-4.669,2.455-4.669,2.455c-1.046,0.32-1.879,1.249-1.879,2.332
					c-0.045,0.445-0.462,0.806-0.916,0.806c-1.023,0-1.005-1.477-1.005-2.175c0-1.046-0.041-2.251-0.793-2.251h-1.5
					c-0.273,0-0.738-0.028-0.932,0.205c-0.389,0.45-0.329,1.639-0.154,1.403c0,0,0.584-0.161,0.959,0
					c0.484,0.139,0.128,1.647,0.128,1.973c0,0.44-0.418,0.845-0.921,0.845c-0.458,0-0.874-0.361-0.92-0.806
					c0-1.083-0.834-2.012-1.831-2.332c0,0-3.924-1.208-4.757-2.455c0,0-0.295,3.297,3.711,4.749c0,0-2.836,0.24-3.879-0.447
					c0.042,0,0.542,2.821,4.338,2.943c0,0-2.502,0.841-3.419,0.724c0,0,1.79,2.053,4.463,1.449c0,0-1.461,1.327-3.131,1.046
					c0,0,1.881,1.687,4.425,0.281c0,0-0.545,1.285-1.751,1.69c0,0,1.541,1.002,3.292-0.443c0.223-0.25,0.937,0.038,0.223,0.584
					c-0.954,0.726-2.312,0.902-2.893,2.111l0.704,0.137c-0.791,0.799-1.845,1.928-1.954,1.955c0,0-0.25-0.362-1.043,0.042
					c-0.418,0.201-0.628,0.723-0.334,0.926c0,0-0.125,0.644,0.626,0.604c0,0,0.292,0.523,0.92,0.12
					c0.584-0.406-0.044-0.282-0.128-0.44c-0.084-0.125,0.044-0.083,0.044-0.083c0.29-0.042,0.668-0.364,0.415-0.643
					c-0.028-0.052,1.358-0.916,2.374-1.538l0.131,0.649c0.349-0.468,0.863-0.785,1.45-0.963c-0.628,0.858-1.008,1.845-0.782,3.219
					c0,0,0.164-0.521,1.001-0.607c0,0-1.168,1.411,0.709,4.148c1.873-2.737,0.795-4.148,0.795-4.148
					c0.83,0.086,1.04,0.607,1.04,0.607c0.189-1.391-0.172-2.38-0.833-3.244c0.604,0.168,1.088,0.497,1.461,0.988l0.133-0.665
					c1.008,0.624,2.396,1.502,2.371,1.553c-0.255,0.279,0.161,0.601,0.415,0.643c0,0,0.083-0.042,0.044,0.083
					c-0.086,0.158-0.713,0.034-0.126,0.44c0.587,0.403,0.918-0.12,0.918-0.12c0.749,0.041,0.631-0.604,0.631-0.604
					c0.287-0.203,0.081-0.724-0.381-0.926c-0.791-0.404-1.041-0.042-1.041-0.042c-0.083-0.027-1.128-1.157-1.904-1.956l0.689-0.136
					C34.373,24.633,33.021,24.376,32.11,23.678z"/>
			</g>
			<g>
				<g>
					<path fill="#FFFFFF" d="M16.976,10.965c-0.565,0.201-1.158-0.027-1.491-0.1c0,0-0.109,0.929,1.304,0.631
						c-0.069,0.734,0.376,1.28,0.574,2.001c-0.101-0.122-0.228-0.234-0.376-0.339c-0.42-0.24-0.919-0.32-1.378-0.24
						c0.039,0.362,0.25,0.762,0.668,1.009c0.354,0.239,0.77,0.331,1.168,0.303c-0.014,0.353-0.108,0.754-0.334,1.222l0.667,0.526
						c0.335-0.646,0.418-2.134-0.08-3.178c-0.342-0.715-0.411-0.991-0.368-1.264c0.457,0.165,1.369,0.395,1.492-0.387
						c0,0-1.022,0.165-1.494-0.161c0.926-0.025,1.708-0.57,1.786-1.289c0.042-0.765-0.71-1.447-1.711-1.488
						c-0.999-0.08-1.878,0.482-1.961,1.246C15.401,10.178,16.062,10.825,16.976,10.965z M17.402,8.251
						c0.375,0.039,0.668,0.682,0.624,1.488c-0.041,0.765-0.458,1.169-0.834,1.127c-0.415-0.039-0.749-0.484-0.71-1.247
						C16.528,8.812,16.987,8.21,17.402,8.251z"/>
					<path fill="#FFFFFF" d="M32.166,7.403c-0.247,0.284,0.047,0.727,0.047,0.727h0.12c-0.12-0.401,0.253-0.727,0.506-0.727
						c0.122,0,0.122-0.482,0-0.482c-0.211,0-0.626-0.322-0.42-0.682l-0.126-0.041c0,0-0.332,0.442-0.08,0.723
						c0,0-0.712,0.122-0.712,0.24C31.501,7.286,32.166,7.403,32.166,7.403z"/>
					<path fill="#FFFFFF" d="M17.151,7.929c0,0.12,0.504,0.164,0.546,0.041c0-0.201,0.373-0.563,0.748-0.404l0.041-0.078
						c0,0-0.415-0.364-0.752-0.123c0,0-0.078-0.643-0.209-0.643c-0.122-0.041-0.331,0.604-0.331,0.604
						c-0.25-0.24-0.749,0.039-0.749,0.039l0.039,0.123C16.859,7.325,17.151,7.729,17.151,7.929z"/>
					<path fill="#FFFFFF" d="M43.953,7.969c0,0.123,0.542,0.08,0.542-0.041c-0.039-0.2,0.295-0.604,0.671-0.442l0.041-0.123
						c0,0-0.503-0.28-0.751-0.039c0,0-0.207-0.645-0.332-0.604c-0.126,0-0.215,0.643-0.215,0.643
						c-0.328-0.24-0.748,0.123-0.748,0.123l0.045,0.078C43.58,7.406,43.953,7.768,43.953,7.969z"/>
					<path fill="#FFFFFF" d="M44.557,19.799c0-0.204,0.372-0.565,0.746-0.404l0.047-0.122c0,0-0.422-0.323-0.752-0.083
						c0,0-0.081-0.643-0.214-0.643c-0.117-0.041-0.331,0.603-0.331,0.603c-0.248-0.237-0.745,0.041-0.745,0.041l0.041,0.122
						c0.368-0.162,0.704,0.243,0.662,0.442C44.011,19.875,44.557,19.914,44.557,19.799z"/>
					<path fill="#FFFFFF" d="M44.323,10.987c-0.475,0.326-1.493,0.161-1.493,0.161c0.119,0.776,1.03,0.552,1.488,0.387
						c0.037,0.273-0.025,0.549-0.365,1.264c-0.543,1.044-0.414,2.532-0.083,3.178l0.668-0.526c-0.236-0.468-0.334-0.871-0.356-1.222
						c0.406,0.033,0.826-0.061,1.194-0.303c0.367-0.247,0.623-0.646,0.665-1.009c-0.46-0.079-0.963,0-1.378,0.24
						c-0.175,0.12-0.315,0.25-0.422,0.392c0.181-0.749,0.66-1.3,0.606-2.056c1.433,0.303,1.317-0.629,1.317-0.629
						c-0.329,0.073-0.93,0.301-1.491,0.103c0.91-0.142,1.572-0.79,1.53-1.513c-0.08-0.763-0.957-1.325-1.956-1.246
						c-1.005,0.041-1.756,0.723-1.716,1.488C42.617,10.417,43.394,10.962,44.323,10.987z M44.248,8.251
						c0.415-0.041,0.876,0.562,0.918,1.367c0.041,0.763-0.337,1.208-0.71,1.247c-0.418,0.042-0.838-0.362-0.876-1.127
						C43.54,8.933,43.871,8.29,44.248,8.251z"/>
					<path fill="#FFFFFF" d="M18.292,19.312l0.037-0.122c0,0-0.5-0.278-0.749-0.041c0,0-0.209-0.643-0.334-0.603
						c-0.125,0-0.206,0.643-0.206,0.643c-0.336-0.24-0.751,0.083-0.751,0.083l0.041,0.122c0.375-0.161,0.752,0.2,0.752,0.404
						c0.039,0.116,0.539,0.077,0.539-0.045C17.58,19.555,17.914,19.149,18.292,19.312z"/>
					<path fill="#FFFFFF" d="M28.746,7.403c0.251,0,0.628,0.326,0.503,0.727h0.125c0,0,0.292-0.443,0.042-0.727
						c0,0,0.665-0.117,0.665-0.242c0-0.119-0.707-0.24-0.707-0.24c0.248-0.281-0.086-0.723-0.086-0.723l-0.125,0.041
						c0.211,0.36-0.205,0.682-0.417,0.682C28.624,6.92,28.624,7.403,28.746,7.403z"/>
					<path fill="#FFFFFF" d="M16.997,27.802l0.668-0.52c-0.96-1.995,0.437-2.705,0.317-3.96c1.419,0.298,1.311-0.628,1.311-0.628
						c-0.348,0.072-0.98,0.32-1.566,0.072c0.946-0.083,1.644-0.746,1.605-1.48c-0.084-0.766-0.96-1.33-1.962-1.294
						c-1.002,0.084-1.75,0.768-1.711,1.535c0.081,0.729,0.888,1.278,1.836,1.253c-0.45,0.37-1.542,0.194-1.542,0.194
						c0.125,0.778,1.034,0.553,1.494,0.39c0.039,0.273-0.03,0.547-0.365,1.26c-0.061,0.125-0.111,0.254-0.154,0.387
						c-0.039-0.259-0.18-0.52-0.434-0.706c-0.329-0.325-0.79-0.489-1.249-0.446c-0.086,0.362,0.041,0.765,0.376,1.087
						c0.314,0.303,0.771,0.462,1.203,0.448C16.631,26.302,16.74,27.306,16.997,27.802z M16.748,21.566
						c-0.044-0.806,0.25-1.448,0.623-1.489c0.418-0.037,0.877,0.563,0.921,1.369c0.037,0.763-0.293,1.205-0.712,1.249
						C17.205,22.734,16.787,22.329,16.748,21.566z"/>
					<path fill="#FFFFFF" d="M17.105,31.589c0.041,0.081,0.5-0.201,0.417-0.279c-0.126-0.201-0.042-0.688,0.376-0.768l-0.042-0.118
						c0,0-0.54,0-0.67,0.36c0,0-0.456-0.481-0.582-0.403c-0.126,0.083,0.169,0.684,0.169,0.684c-0.418-0.08-0.626,0.445-0.626,0.445
						l0.081,0.08C16.478,31.225,16.979,31.388,17.105,31.589z"/>
					<path fill="#FFFFFF" d="M44.876,31.065c0,0,0.254-0.601,0.169-0.684c-0.125-0.078-0.581,0.403-0.581,0.403
						c-0.131-0.36-0.671-0.36-0.671-0.36l-0.037,0.118c0.412,0.08,0.459,0.567,0.328,0.768c-0.039,0.078,0.418,0.36,0.461,0.279
						c0.128-0.201,0.629-0.364,0.838,0l0.122-0.08C45.503,31.51,45.291,30.985,44.876,31.065z"/>
					<path fill="#FFFFFF" d="M41.098,8.21l-0.504-0.682c-0.506,0.184-0.926,0.24-1.293,0.228c0.069-0.362,0.011-0.776-0.206-1.157
						c-0.211-0.401-0.588-0.645-0.999-0.721c-0.13,0.443-0.092,0.924,0.164,1.328c0.089,0.166,0.203,0.312,0.34,0.428
						c-0.734-0.231-1.257-0.712-2.003-0.74c0.37-1.335-0.593-1.302-0.593-1.302c0.041,0.298,0.257,0.935-0.037,1.478
						c-0.017-0.909-0.621-1.636-1.382-1.636c-0.832,0-1.497,0.763-1.497,1.727c-0.04,0.969,0.581,1.772,1.375,1.772
						c0.806,0,1.458-0.715,1.499-1.637c0.342,0.461,0.086,1.478,0.086,1.478c0.768-0.03,0.629-0.955,0.525-1.391
						c0.258,0.009,0.563,0.106,1.23,0.462C38.842,8.45,40.392,8.45,41.098,8.21z M34.586,7.929
						c-0.788-0.042-1.416-0.364-1.453-0.768c0-0.359,0.665-0.763,1.497-0.763c0.793,0.042,1.213,0.443,1.213,0.809
						C35.881,7.607,35.422,7.969,34.586,7.929z"/>
					<path fill="#FFFFFF" d="M46.432,23.859c-0.503-0.042-0.957,0.122-1.289,0.446c-0.226,0.184-0.373,0.443-0.42,0.703
						c-0.048-0.133-0.103-0.259-0.166-0.384c-0.337-0.713-0.407-0.987-0.368-1.26c0.456,0.163,1.366,0.39,1.492-0.39
						c0,0-1.093,0.177-1.542-0.194c0.947,0.025,1.755-0.524,1.836-1.253c0.041-0.767-0.712-1.45-1.708-1.535
						c-1.005-0.036-1.876,0.528-1.964,1.294c-0.044,0.734,0.656,1.397,1.605,1.48c-0.587,0.248-1.215,0-1.517-0.072
						c0,0-0.153,0.929,1.269,0.628c-0.087,1.255,1.31,1.961,0.314,3.96l0.662,0.52c0.259-0.497,0.395-1.5,0.19-2.409
						c0.432,0.009,0.882-0.151,1.19-0.448C46.351,24.624,46.473,24.221,46.432,23.859z M43.349,21.446
						c0.037-0.806,0.495-1.406,0.918-1.369c0.368,0.041,0.707,0.684,0.662,1.489c-0.039,0.763-0.454,1.168-0.876,1.128
						C43.682,22.651,43.309,22.209,43.349,21.446z"/>
					<path fill="#FFFFFF" d="M44.214,31.63c-0.837-0.521-1.88-0.443-2.298,0.201c-0.44,0.621-0.148,1.536,0.617,2.071
						c-0.576,0.022-1.327-0.707-1.327-0.707c-0.376,0.668,0.498,1.016,0.955,1.147c-0.141,0.248-0.37,0.429-1.082,0.788
						c-1.08,0.521-1.915,1.77-2.086,2.494l0.877-0.039c0.106-0.507,0.278-0.876,0.481-1.164c0.306,0.248,0.674,0.404,1.107,0.436
						c0.498,0.044,0.916-0.158,1.207-0.44c-0.331-0.323-0.749-0.563-1.252-0.563c-0.197-0.014-0.381-0.002-0.554,0.044
						c0.607-0.465,1.316-0.64,1.751-1.271c0.954,1.039,1.433,0.22,1.433,0.22c-0.303-0.106-0.955-0.286-1.293-0.806
						c0.845,0.471,1.775,0.336,2.212-0.279C45.381,33.119,45.044,32.151,44.214,31.63z M44.044,33.278
						c-0.459,0.646-1.004,0.804-1.336,0.602c-0.373-0.198-0.461-0.762,0-1.408c0.46-0.641,1.129-0.963,1.459-0.765
						C44.501,31.909,44.501,32.635,44.044,33.278z"/>
					<path fill="#FFFFFF" d="M20.568,35.131c-0.707-0.359-0.938-0.54-1.077-0.788c0.45-0.131,1.327-0.479,0.954-1.147
						c0,0-0.784,0.757-1.363,0.701c0.802-0.532,1.093-1.444,0.651-2.065c-0.417-0.645-1.458-0.723-2.293-0.201
						c-0.835,0.521-1.171,1.489-0.751,2.132c0.447,0.627,1.41,0.759,2.232,0.241c-0.326,0.549-1.001,0.732-1.316,0.844
						c0,0,0.479,0.819,1.439-0.22c0.431,0.631,1.144,0.805,1.739,1.271c-0.165-0.045-0.348-0.058-0.548-0.044
						c-0.503,0-0.962,0.24-1.254,0.563c0.251,0.283,0.709,0.484,1.213,0.44c0.392-0.031,0.785-0.188,1.102-0.436
						c0.203,0.287,0.373,0.655,0.479,1.164l0.877,0.039C22.488,36.901,21.654,35.652,20.568,35.131z M18.943,33.881
						c-0.334,0.201-0.879,0.044-1.338-0.602c-0.459-0.643-0.459-1.369-0.125-1.57c0.336-0.198,1.002,0.123,1.463,0.765
						C19.358,33.119,19.274,33.682,18.943,33.881z"/>
					<path fill="#FFFFFF" d="M27.119,8.933c0.791,0,1.419-0.802,1.378-1.772c0-0.963-0.67-1.727-1.505-1.727
						c-0.754,0-1.357,0.727-1.375,1.636c-0.295-0.543-0.081-1.18-0.042-1.478c0,0-0.957-0.033-0.587,1.302
						c-0.752,0.028-1.272,0.509-2.003,0.74c0.136-0.115,0.253-0.262,0.334-0.428c0.255-0.404,0.295-0.885,0.17-1.328
						c-0.418,0.076-0.793,0.32-1.002,0.721c-0.217,0.381-0.276,0.794-0.211,1.157c-0.361,0.012-0.781-0.044-1.291-0.228L20.486,8.21
						c0.709,0.24,2.251,0.24,3.294-0.365c0.665-0.356,0.969-0.453,1.228-0.462c-0.104,0.436-0.24,1.361,0.526,1.391
						c0,0-0.253-1.018,0.083-1.478C25.66,8.218,26.311,8.933,27.119,8.933z M25.744,7.206c0-0.365,0.415-0.766,1.208-0.809
						c0.833,0,1.502,0.404,1.502,0.763c-0.042,0.404-0.668,0.726-1.461,0.768C26.159,7.969,25.7,7.607,25.744,7.206z"/>
					<path fill="#FFFFFF" d="M32.107,37.223c-0.741,0.204-1.046,0.217-1.33,0.144c0.225-0.4,0.568-1.218-0.212-1.43
						c0,0,0.033,0.996-0.39,1.367c0.128-0.901-0.322-1.705-1.074-1.895c-0.791-0.158-1.583,0.484-1.792,1.449
						c-0.165,0.93,0.292,1.812,1.083,2.012c0.767,0.154,1.53-0.437,1.731-1.312c0.154,0.587-0.198,1.139-0.311,1.433
						c0,0,0.951,0.281,0.865-1.097c0.755,0.144,1.391-0.209,2.159-0.295c-0.156,0.078-0.311,0.178-0.436,0.306
						c-0.293,0.364-0.462,0.848-0.462,1.291c0.415,0,0.837-0.164,1.169-0.526c0.284-0.273,0.446-0.668,0.462-1.052
						c0.365,0.059,0.754,0.209,1.207,0.489l0.667-0.563C34.815,37.142,33.274,36.858,32.107,37.223z M30.06,37.385
						c-0.083,0.403-0.625,0.684-1.419,0.52c-0.793-0.158-1.333-0.682-1.25-1.047c0.086-0.362,0.791-0.561,1.628-0.44
						C29.812,36.581,30.144,37.022,30.06,37.385z"/>
					<path fill="#FFFFFF" d="M27.143,36.538c-0.211-0.042-0.545-0.443-0.292-0.763l-0.127-0.083c0,0-0.415,0.362-0.209,0.726
						c0,0-0.665,0-0.712,0.078c-0.037,0.122,0.628,0.406,0.628,0.406c-0.333,0.24-0.122,0.724-0.122,0.724h0.122
						c-0.084-0.403,0.376-0.646,0.623-0.604C27.143,37.06,27.264,36.581,27.143,36.538z"/>
				</g>
			</g>
		</g>
	</g>
</g>
</svg>
