<?xml version="1.0" encoding="utf-8"?>
<!-- Generator: Adobe Illustrator 17.0.2, SVG Export Plug-In . SVG Version: 6.00 Build 0)  -->
<!DOCTYPE svg PUBLIC "-//W3C//DTD SVG 1.1//EN" "http://www.w3.org/Graphics/SVG/1.1/DTD/svg11.dtd">
<svg version="1.1" id="Capa_1" xmlns="http://www.w3.org/2000/svg" xmlns:xlink="http://www.w3.org/1999/xlink" x="0px" y="0px"
	 width="79.783px" height="31.842px" viewBox="0 0 79.783 31.842" enable-background="new 0 0 79.783 31.842" xml:space="preserve">
<g>
	<g>
		<path fill="#007BBA" d="M40.277,18.04V7.313h2.191c0.879,0,1.558,0.243,2.037,0.731c0.479,0.488,0.719,1.176,0.719,2.066
			c0,0.535-0.095,1.003-0.282,1.408c-0.187,0.402-0.477,0.751-0.867,1.043c0.438,0.252,0.763,0.589,0.973,1.012
			c0.21,0.423,0.315,0.954,0.315,1.597c0,0.979-0.214,1.702-0.644,2.17c-0.429,0.466-1.095,0.7-1.998,0.7H40.277z M41.917,11.78
			h0.669c0.303,0,0.538-0.129,0.706-0.386c0.168-0.258,0.252-0.619,0.252-1.083c0-0.509-0.085-0.878-0.255-1.106
			c-0.172-0.228-0.451-0.34-0.837-0.34h-0.535V11.78z M41.917,16.487h0.714c0.355,0,0.614-0.123,0.78-0.37
			c0.165-0.248,0.248-0.635,0.248-1.162c0-0.584-0.093-0.999-0.277-1.249c-0.184-0.249-0.495-0.373-0.929-0.373h-0.535V16.487z"/>
		<path fill="#A53785" d="M46.079,9.79c0-0.845,0.231-1.507,0.69-1.986c0.459-0.479,1.095-0.719,1.905-0.719
			c0.766,0,1.373,0.246,1.821,0.737c0.448,0.493,0.67,1.163,0.67,2.012v5.494c0,0.94-0.22,1.664-0.663,2.174
			c-0.442,0.51-1.071,0.763-1.887,0.763c-0.826,0-1.454-0.252-1.887-0.759c-0.433-0.507-0.649-1.248-0.649-2.222V9.79z
			 M49.461,15.67V9.686c0-0.37-0.072-0.648-0.215-0.833c-0.143-0.186-0.354-0.278-0.637-0.278c-0.282,0-0.494,0.092-0.637,0.278
			c-0.143,0.185-0.215,0.463-0.215,0.833v5.985c0,0.37,0.072,0.65,0.215,0.839c0.143,0.187,0.355,0.281,0.637,0.281
			c0.282,0,0.493-0.094,0.637-0.281C49.389,16.32,49.461,16.041,49.461,15.67z"/>
		<path fill="#E98623" d="M52.364,15.287v-5.49c0-0.846,0.23-1.51,0.689-1.99c0.459-0.481,1.095-0.722,1.907-0.722
			c0.78,0,1.374,0.233,1.779,0.699c0.406,0.467,0.608,1.152,0.608,2.058v0.992h-1.59V9.693c0-0.374-0.072-0.653-0.217-0.838
			c-0.144-0.187-0.358-0.281-0.641-0.281c-0.284,0-0.498,0.094-0.642,0.281c-0.144,0.185-0.216,0.464-0.216,0.838v5.98
			c0,0.37,0.072,0.648,0.216,0.836c0.144,0.187,0.359,0.281,0.642,0.281c0.283,0,0.497-0.094,0.641-0.281
			c0.145-0.188,0.217-0.466,0.217-0.836V14h-1.007v-1.362h2.597v5.402h-0.791l-0.318-0.746c-0.183,0.332-0.403,0.577-0.661,0.735
			c-0.257,0.157-0.568,0.236-0.935,0.236c-0.738,0-1.302-0.253-1.693-0.763C52.559,16.994,52.364,16.257,52.364,15.287z"/>
		<path fill="#DF3329" d="M58.311,9.79c0-0.845,0.23-1.507,0.689-1.986c0.459-0.479,1.094-0.719,1.905-0.719
			c0.765,0,1.373,0.246,1.819,0.737c0.447,0.493,0.671,1.163,0.671,2.012v5.494c0,0.94-0.22,1.664-0.663,2.174
			c-0.442,0.51-1.071,0.763-1.887,0.763c-0.825,0-1.455-0.252-1.886-0.759c-0.433-0.507-0.649-1.248-0.649-2.222V9.79z
			 M61.691,15.67V9.686c0-0.37-0.071-0.648-0.213-0.833c-0.144-0.186-0.356-0.278-0.637-0.278c-0.282,0-0.494,0.092-0.637,0.278
			c-0.143,0.185-0.214,0.463-0.214,0.833v5.985c0,0.37,0.071,0.65,0.214,0.839c0.143,0.187,0.356,0.281,0.637,0.281
			c0.282,0,0.493-0.094,0.637-0.281C61.62,16.32,61.691,16.041,61.691,15.67z"/>
		<path fill="#1F9645" d="M63.969,8.865V7.313h5.086v1.552H67.34v9.175h-1.653V8.865H63.969z"/>
		<path fill="#E13A86" d="M69.056,18.04l1.768-10.726h2.157l1.754,10.726H73.04l-0.333-2.309h-1.669l-0.356,2.309H69.056z
			 M72.237,6.771h-1.2l0.719-1.641h1.88L72.237,6.771z M71.246,14.202h1.259l-0.562-4.485h-0.106L71.246,14.202z"/>
		<path fill="#2A2724" d="M57.339,18.518c-0.663,0-1.424,0.22-1.94,0.561c-0.489,0.323-0.928,0.776-1.272,1.318
			c-0.486-0.6-1.231-0.775-2.053-0.467c-0.717,0.269-1.176,0.665-1.363,1.179c-0.366,1.003,0.338,2.253,0.958,3.357
			c0.12,0.213,0.236,0.42,0.339,0.615c0.034,0.065,0.115,0.141,0.305,0.141c0.25,0,0.656-0.146,0.756-0.311
			c0.045-0.074,0.026-0.134,0.01-0.164c-0.122-0.233-0.282-0.486-0.45-0.754c-0.631-1.003-1.415-2.251-0.716-3.224
			c0.191-0.264,0.384-0.398,0.575-0.398c0.467,0,0.921,0.821,1.043,1.411c0.012,0.065,0.069,0.174,0.293,0.174
			c0.234,0,0.729-0.152,0.791-0.359c0.199-0.674,0.558-1.314,1.039-1.852c0.331-0.367,0.818-0.595,1.273-0.595
			c0.315,0,0.604,0.11,0.832,0.315c0.338,0.303,0.2,0.918,0.041,1.42c-0.273,0.869-0.797,1.666-1.305,2.437l-0.119,0.181
			c-0.383,0.585-0.775,1.229-1.195,1.97c-0.061,0.106-0.126,0.215-0.194,0.327c-0.251,0.415-0.535,0.886-0.627,1.35
			c-0.011,0.053,0.002,0.106,0.035,0.148c0.052,0.061,0.149,0.093,0.289,0.093c0.233,0,0.71-0.105,0.758-0.349
			c0.113-0.564,0.489-1.162,0.823-1.691c0.106-0.171,0.212-0.338,0.304-0.497c0.278-0.478,0.582-0.951,0.877-1.409
			c0.147-0.228,0.294-0.457,0.439-0.686l0.082-0.132c0.571-0.897,1.631-2.565,0.862-3.508
			C58.514,18.725,57.997,18.518,57.339,18.518z"/>
		<polygon fill="#2A2724" points="43.578,21.261 41.25,21.261 41.25,18.827 40.277,18.827 40.277,24.895 41.25,24.895 41.25,22.203 
			43.578,22.203 43.578,24.895 44.557,24.895 44.557,18.827 43.578,18.827 		"/>
		<path fill="#2A2724" d="M48.769,22.579c0,0.484-0.101,0.856-0.303,1.108c-0.199,0.247-0.48,0.368-0.86,0.368
			c-0.378,0-0.658-0.12-0.856-0.368c-0.201-0.252-0.302-0.624-0.302-1.108v-3.753h-0.979v3.789c0,0.719,0.195,1.3,0.582,1.73
			c0.387,0.431,0.911,0.652,1.555,0.652c0.645,0,1.17-0.22,1.56-0.652c0.386-0.428,0.583-1.011,0.583-1.73v-3.789h-0.98V22.579z"/>
		<path fill="#2A2724" d="M61.828,18.732c-0.644,0-1.169,0.218-1.557,0.649c-0.386,0.429-0.581,1.012-0.581,1.735v3.779h0.979
			v-2.688h2.323v2.688h0.978v-3.779c0-0.723-0.196-1.308-0.582-1.735C62.996,18.95,62.472,18.732,61.828,18.732z M60.669,21.132
			c0-0.487,0.102-0.86,0.302-1.112c0.197-0.246,0.479-0.369,0.857-0.369c0.38,0,0.66,0.123,0.858,0.369
			c0.203,0.252,0.306,0.626,0.306,1.112v0.134h-2.323V21.132z"/>
		<path fill="#2A2724" d="M68.659,23.398l-1.925-3.995c-0.103-0.21-0.219-0.369-0.347-0.475c-0.133-0.109-0.285-0.164-0.455-0.164
			c-0.236,0-0.423,0.087-0.552,0.261c-0.124,0.164-0.187,0.398-0.187,0.695v5.175h0.936v-4.581l1.932,4.021
			c0.099,0.208,0.217,0.369,0.35,0.474c0.139,0.112,0.299,0.167,0.474,0.167c0.228,0,0.408-0.089,0.537-0.266
			c0.122-0.167,0.183-0.397,0.183-0.685v-5.198h-0.947V23.398z"/>
		<path fill="#2A2724" d="M74.352,19.381c-0.391-0.431-0.915-0.649-1.559-0.649c-0.645,0-1.168,0.218-1.557,0.649
			c-0.386,0.428-0.581,1.012-0.581,1.735v3.779h0.979v-2.688h2.322v2.688h0.979v-3.779C74.935,20.393,74.738,19.809,74.352,19.381z
			 M71.634,21.132c0-0.487,0.102-0.86,0.303-1.112c0.197-0.246,0.477-0.369,0.856-0.369c0.38,0,0.661,0.123,0.859,0.369
			c0.201,0.252,0.304,0.626,0.304,1.112v0.134h-2.322V21.132z"/>
	</g>
	<g>
		<rect x="33.249" y="5.201" fill="#2A2724" width="0.409" height="22.318"/>
	</g>
	<g>
		<g>
			<g>
				<g>
					<g>
						<path fill="#2A2724" d="M6.109,24.414H5.691L5.527,23.98H4.763l-0.157,0.433H4.198l0.74-1.905h0.41L6.109,24.414z
							 M5.402,23.656l-0.262-0.701l-0.257,0.701H5.402z"/>
					</g>
				</g>
				<g>
					<g>
						<polygon fill="#2A2724" points="6.212,24.412 6.212,22.525 6.597,22.525 6.597,24.091 7.552,24.091 7.552,24.412 						"/>
					</g>
				</g>
				<g>
					<g>
						<path fill="#2A2724" d="M8.935,23.709l0.373,0.12c-0.057,0.208-0.152,0.362-0.285,0.466c-0.132,0.1-0.301,0.15-0.506,0.15
							c-0.254,0-0.461-0.087-0.625-0.259c-0.163-0.173-0.243-0.408-0.243-0.709c0-0.316,0.081-0.561,0.245-0.737
							c0.165-0.175,0.38-0.263,0.647-0.263c0.233,0,0.423,0.068,0.568,0.205c0.085,0.082,0.152,0.199,0.196,0.351l-0.383,0.092
							c-0.021-0.099-0.068-0.179-0.14-0.235c-0.072-0.057-0.159-0.086-0.259-0.086c-0.143,0-0.257,0.052-0.346,0.153
							c-0.088,0.101-0.132,0.264-0.132,0.491c0,0.241,0.043,0.41,0.13,0.514c0.087,0.101,0.199,0.154,0.338,0.154
							c0.102,0,0.191-0.034,0.264-0.1C8.849,23.953,8.902,23.85,8.935,23.709"/>
					</g>
				</g>
				<g>
					<g>
						<path fill="#2A2724" d="M11.244,24.414h-0.418l-0.167-0.433H9.897l-0.159,0.433H9.33l0.742-1.905h0.408L11.244,24.414z
							 M10.535,23.656l-0.263-0.701l-0.258,0.701H10.535z"/>
					</g>
				</g>
				<g>
					<g>
						<polygon fill="#2A2724" points="11.345,24.412 11.345,22.525 11.73,22.525 11.73,24.091 12.686,24.091 12.686,24.412 						
							"/>
					</g>
				</g>
				<g>
					<g>
						<path fill="#2A2724" d="M12.847,22.509h0.702c0.159,0,0.28,0.012,0.364,0.036c0.11,0.032,0.206,0.092,0.285,0.176
							c0.081,0.084,0.141,0.186,0.184,0.307c0.041,0.123,0.062,0.272,0.062,0.45c0,0.157-0.02,0.293-0.058,0.405
							c-0.049,0.14-0.117,0.251-0.205,0.336c-0.067,0.066-0.157,0.117-0.27,0.152c-0.084,0.027-0.198,0.039-0.34,0.039h-0.723
							V22.509z M13.233,22.832v1.258h0.286c0.108,0,0.185-0.006,0.233-0.018c0.064-0.016,0.115-0.041,0.156-0.079
							c0.041-0.037,0.074-0.099,0.101-0.183c0.025-0.086,0.038-0.2,0.038-0.348c0-0.147-0.013-0.26-0.038-0.339
							c-0.027-0.078-0.063-0.14-0.11-0.184c-0.047-0.044-0.105-0.074-0.177-0.091c-0.055-0.011-0.16-0.017-0.316-0.017H13.233z"/>
					</g>
				</g>
				<g>
					<g>
						<path fill="#2A2724" d="M14.743,22.334l0.178-0.387h0.408l-0.356,0.387H14.743z M14.647,22.509h0.384v1.903h-0.384V22.509z"/>
					</g>
				</g>
				<g>
					<g>
						<path fill="#2A2724" d="M17.004,24.414h-0.419L16.42,23.98h-0.761L15.5,24.414h-0.408l0.741-1.905h0.41L17.004,24.414z
							 M16.296,23.656l-0.263-0.701l-0.257,0.701H16.296z"/>
					</g>
				</g>
				<g>
					<g>
						<polygon fill="#2A2724" points="17.62,24.412 17.62,22.509 18.195,22.509 18.539,23.808 18.882,22.509 19.457,22.509 
							19.457,24.412 19.101,24.412 19.101,22.914 18.722,24.412 18.351,24.412 17.976,22.914 17.975,24.412 						"/>
					</g>
				</g>
				<g>
					<g>
						<path fill="#2A2724" d="M21.448,24.414H21.03l-0.168-0.433h-0.761l-0.159,0.433h-0.407l0.74-1.905h0.41L21.448,24.414z
							 M20.739,23.656l-0.263-0.701l-0.259,0.701H20.739z"/>
					</g>
				</g>
				<g>
					<g>
						<polygon fill="#2A2724" points="21.793,24.412 21.793,23.612 21.096,22.509 21.548,22.509 21.998,23.264 22.436,22.509 
							22.879,22.509 22.18,23.615 22.18,24.412 						"/>
					</g>
				</g>
				<g>
					<g>
						<path fill="#2A2724" d="M22.879,23.473c0-0.194,0.03-0.357,0.087-0.488c0.044-0.099,0.103-0.185,0.177-0.261
							c0.075-0.078,0.159-0.135,0.247-0.173c0.118-0.05,0.255-0.074,0.41-0.074c0.28,0,0.505,0.087,0.674,0.261
							c0.168,0.174,0.25,0.416,0.25,0.726c0,0.307-0.082,0.549-0.248,0.72c-0.168,0.174-0.392,0.261-0.67,0.261
							c-0.285,0-0.508-0.087-0.678-0.259C22.962,24.014,22.879,23.775,22.879,23.473 M23.276,23.46c0,0.214,0.05,0.379,0.149,0.489
							c0.099,0.111,0.227,0.168,0.381,0.168c0.151,0,0.278-0.057,0.375-0.167c0.099-0.11,0.148-0.276,0.148-0.496
							c0-0.217-0.047-0.38-0.143-0.487c-0.096-0.106-0.224-0.161-0.38-0.161c-0.159,0-0.289,0.055-0.385,0.164
							C23.324,23.077,23.276,23.241,23.276,23.46z"/>
					</g>
				</g>
				<g>
					<g>
						<path fill="#2A2724" d="M24.916,24.412v-1.903h0.809c0.204,0,0.352,0.017,0.444,0.052c0.093,0.032,0.168,0.094,0.22,0.182
							c0.057,0.089,0.085,0.187,0.085,0.301c0,0.142-0.042,0.259-0.124,0.354c-0.085,0.092-0.209,0.152-0.376,0.175
							c0.082,0.048,0.152,0.101,0.205,0.16c0.054,0.058,0.126,0.16,0.217,0.308l0.234,0.371h-0.462l-0.275-0.415
							c-0.101-0.147-0.169-0.238-0.203-0.28c-0.038-0.038-0.076-0.063-0.115-0.078c-0.044-0.013-0.108-0.02-0.196-0.02h-0.076v0.793
							H24.916z M25.303,23.315h0.284c0.185,0,0.297-0.008,0.344-0.023c0.048-0.016,0.082-0.043,0.109-0.082
							c0.026-0.037,0.038-0.086,0.038-0.143c0-0.063-0.017-0.114-0.052-0.154c-0.032-0.039-0.079-0.066-0.143-0.076
							c-0.029-0.003-0.123-0.006-0.279-0.006h-0.299V23.315z"/>
					</g>
				</g>
			</g>
			<g>
				<g>
					<g>
						<rect x="22.656" y="27.133" fill="#2A2724" width="0.358" height="0.359"/>
					</g>
				</g>
				<g>
					<g>
						<path fill="#2A2724" d="M5.418,25.616h0.691c0.157,0,0.273,0.011,0.356,0.034c0.109,0.034,0.203,0.091,0.282,0.172
							c0.079,0.083,0.138,0.184,0.178,0.304c0.041,0.12,0.061,0.266,0.061,0.442c0,0.156-0.019,0.288-0.056,0.399
							c-0.047,0.136-0.113,0.247-0.201,0.33c-0.066,0.065-0.155,0.115-0.266,0.15c-0.083,0.028-0.195,0.04-0.334,0.04H5.418V25.616z
							 M5.797,25.933v1.236h0.282c0.106,0,0.183-0.006,0.23-0.017c0.061-0.016,0.111-0.041,0.152-0.078
							c0.041-0.037,0.073-0.098,0.099-0.179c0.025-0.083,0.038-0.199,0.038-0.343c0-0.144-0.013-0.254-0.038-0.331
							c-0.027-0.078-0.062-0.139-0.108-0.182c-0.045-0.043-0.105-0.073-0.175-0.087c-0.052-0.012-0.156-0.018-0.311-0.018H5.797z"/>
					</g>
				</g>
				<g>
					<g>
						<polygon fill="#2A2724" points="7.2,27.487 7.2,25.616 8.585,25.616 8.585,25.933 7.579,25.933 7.579,26.346 8.515,26.346 
							8.515,26.664 7.579,26.664 7.579,27.169 8.622,27.169 8.622,27.487 						"/>
					</g>
				</g>
				<g>
					<g>
						<path fill="#2A2724" d="M9.45,25.616h0.75c0.146,0,0.256,0.005,0.33,0.018c0.073,0.014,0.138,0.038,0.195,0.078
							c0.057,0.039,0.105,0.091,0.143,0.154c0.038,0.067,0.057,0.139,0.057,0.219c0,0.088-0.023,0.169-0.07,0.242
							c-0.047,0.075-0.112,0.128-0.191,0.164c0.113,0.034,0.201,0.091,0.261,0.169c0.064,0.082,0.093,0.176,0.093,0.284
							c0,0.086-0.02,0.168-0.059,0.249c-0.039,0.08-0.094,0.145-0.161,0.193c-0.069,0.049-0.155,0.078-0.255,0.09
							c-0.062,0.005-0.215,0.011-0.455,0.011H9.45V25.616z M9.83,25.926v0.432h0.246c0.147,0,0.238-0.002,0.275-0.005
							c0.063-0.008,0.114-0.031,0.151-0.068c0.038-0.037,0.057-0.085,0.057-0.145c0-0.059-0.017-0.105-0.048-0.142
							c-0.031-0.037-0.079-0.057-0.143-0.064c-0.036-0.005-0.144-0.008-0.322-0.008H9.83z M9.83,26.671v0.496h0.349
							c0.136,0,0.223-0.001,0.261-0.009c0.055-0.011,0.102-0.037,0.137-0.075c0.035-0.04,0.053-0.092,0.053-0.158
							c0-0.057-0.014-0.106-0.041-0.145c-0.028-0.04-0.067-0.066-0.118-0.085c-0.053-0.019-0.164-0.025-0.336-0.025H9.83z"/>
					</g>
				</g>
				<g>
					<g>
						<path fill="#2A2724" d="M11.151,26.562c0-0.19,0.029-0.349,0.083-0.479c0.043-0.095,0.103-0.18,0.175-0.257
							c0.074-0.074,0.154-0.13,0.243-0.167c0.116-0.05,0.25-0.075,0.403-0.075c0.277,0,0.496,0.085,0.661,0.257
							c0.166,0.17,0.249,0.407,0.249,0.714c0,0.301-0.082,0.538-0.247,0.707c-0.164,0.171-0.384,0.257-0.659,0.257
							c-0.277,0-0.5-0.087-0.662-0.254C11.232,27.094,11.151,26.86,11.151,26.562 M11.541,26.55c0,0.212,0.048,0.372,0.147,0.48
							c0.098,0.11,0.222,0.165,0.373,0.165c0.15,0,0.274-0.055,0.371-0.163c0.097-0.108,0.144-0.271,0.144-0.488
							c0-0.214-0.047-0.375-0.141-0.48c-0.093-0.105-0.219-0.157-0.374-0.157s-0.282,0.053-0.377,0.159
							C11.589,26.175,11.541,26.334,11.541,26.55z"/>
					</g>
				</g>
				<g>
					<g>
						<path fill="#2A2724" d="M14.022,26.803v-0.319h0.814v0.744c-0.08,0.077-0.194,0.145-0.344,0.203
							c-0.15,0.059-0.303,0.088-0.456,0.088c-0.196,0-0.366-0.041-0.512-0.124c-0.145-0.081-0.254-0.199-0.328-0.352
							c-0.072-0.153-0.11-0.319-0.11-0.498c0-0.196,0.042-0.369,0.123-0.519c0.081-0.152,0.201-0.268,0.357-0.35
							c0.12-0.061,0.27-0.093,0.449-0.093c0.233,0,0.414,0.05,0.545,0.146c0.13,0.097,0.213,0.231,0.25,0.404l-0.374,0.071
							c-0.028-0.092-0.077-0.163-0.149-0.218c-0.074-0.054-0.163-0.079-0.273-0.079c-0.164,0-0.295,0.052-0.393,0.155
							c-0.098,0.106-0.147,0.26-0.147,0.466c0,0.222,0.048,0.388,0.149,0.498c0.098,0.113,0.226,0.168,0.387,0.168
							c0.08,0,0.159-0.016,0.238-0.046c0.08-0.032,0.147-0.068,0.203-0.113v-0.234H14.022z"/>
					</g>
				</g>
				<g>
					<g>
						<path fill="#2A2724" d="M14.999,26.562c0-0.19,0.027-0.349,0.085-0.479c0.042-0.095,0.101-0.18,0.175-0.257
							c0.075-0.074,0.154-0.13,0.242-0.167c0.117-0.05,0.25-0.075,0.404-0.075c0.273,0,0.495,0.085,0.663,0.257
							c0.163,0.17,0.246,0.407,0.246,0.714c0,0.301-0.083,0.538-0.245,0.707c-0.164,0.171-0.384,0.257-0.66,0.257
							c-0.278,0-0.5-0.087-0.663-0.254C15.08,27.094,14.999,26.86,14.999,26.562 M15.388,26.55c0,0.212,0.048,0.372,0.147,0.48
							c0.098,0.11,0.222,0.165,0.371,0.165c0.15,0,0.273-0.055,0.373-0.163c0.097-0.108,0.144-0.271,0.144-0.488
							c0-0.214-0.046-0.375-0.14-0.48c-0.096-0.105-0.221-0.157-0.378-0.157c-0.154,0-0.28,0.053-0.375,0.159
							C15.436,26.175,15.388,26.334,15.388,26.55z"/>
					</g>
				</g>
				<g>
					<g>
						<polygon fill="#2A2724" points="17.423,27.487 17.423,25.933 16.868,25.933 16.868,25.616 18.355,25.616 18.355,25.933 
							17.801,25.933 17.801,27.487 						"/>
					</g>
				</g>
				<g>
					<g>
						<path fill="#2A2724" d="M20.176,27.487h-0.412l-0.163-0.426h-0.75l-0.152,0.426h-0.402l0.728-1.871h0.401L20.176,27.487z
							 M19.48,26.743l-0.261-0.691l-0.249,0.691H19.48z M19.089,25.444l0.176-0.382h0.401l-0.35,0.382H19.089z"/>
					</g>
				</g>
				<g>
					<g>
						<path fill="#2A2724" d="M20.88,25.616h0.692c0.155,0,0.275,0.011,0.357,0.034c0.109,0.034,0.203,0.091,0.282,0.172
							c0.077,0.083,0.138,0.184,0.179,0.304c0.04,0.12,0.061,0.268,0.061,0.442c0,0.156-0.019,0.288-0.057,0.399
							c-0.047,0.136-0.115,0.247-0.201,0.33c-0.065,0.065-0.153,0.115-0.264,0.15c-0.085,0.028-0.197,0.04-0.335,0.04H20.88V25.616z
							 M21.259,25.933v1.236h0.282c0.108,0,0.182-0.006,0.229-0.017c0.061-0.016,0.113-0.041,0.154-0.078
							c0.039-0.037,0.073-0.098,0.098-0.179c0.026-0.083,0.038-0.199,0.038-0.343c0-0.144-0.012-0.254-0.038-0.331
							c-0.026-0.078-0.061-0.139-0.108-0.182c-0.045-0.043-0.104-0.073-0.173-0.087c-0.052-0.012-0.156-0.018-0.31-0.018H21.259z"/>
					</g>
				</g>
				<g>
					<g>
						<path fill="#2A2724" d="M24.476,26.796l0.365,0.116c-0.057,0.205-0.15,0.359-0.279,0.458c-0.131,0.098-0.297,0.15-0.498,0.15
							c-0.249,0-0.452-0.085-0.611-0.254c-0.162-0.17-0.242-0.402-0.242-0.696c0-0.312,0.081-0.554,0.242-0.724
							c0.161-0.175,0.373-0.261,0.635-0.261c0.228,0,0.415,0.069,0.558,0.205c0.085,0.078,0.15,0.195,0.192,0.345l-0.375,0.091
							c-0.02-0.099-0.069-0.175-0.14-0.231c-0.069-0.055-0.155-0.084-0.254-0.084c-0.141,0-0.254,0.048-0.34,0.148
							c-0.087,0.101-0.129,0.261-0.129,0.484c0,0.236,0.041,0.405,0.127,0.505c0.085,0.101,0.194,0.15,0.331,0.15
							c0.102,0,0.188-0.034,0.26-0.097C24.393,27.035,24.446,26.933,24.476,26.796"/>
					</g>
				</g>
				<g>
					<g>
						<rect x="25.051" y="27.138" fill="#2A2724" width="0.359" height="0.358"/>
					</g>
				</g>
			</g>
		</g>
		<g>
			<g>
				<path fill-rule="evenodd" clip-rule="evenodd" fill="#005B9D" d="M8.675,5.201c2.074,1.1,4.613,1.106,6.693,0.016
					c2.096,1.077,4.608,1.09,6.693-0.016v11.996c0,1.468-1.226,2.634-2.722,2.634c-1.448,0-2.725,0.215-3.972,0.998
					c-1.246-0.798-2.535-0.998-3.985-0.998c-1.499,0-2.708-1.165-2.708-2.634V5.201z"/>
			</g>
			<g>
				<path fill-rule="evenodd" clip-rule="evenodd" fill="#FFD334" d="M10.958,15.971c0,0.958,0.733,1.742,1.744,1.742
					c0.986,0,1.798,0.108,2.655,0.644c0.85-0.532,1.657-0.644,2.637-0.644c1.011,0,1.87-0.784,1.87-1.742l0.009-8.065
					c-1.088,0.566-3.419,0.194-4.461-0.349c-1.03,0.538-3.388,0.923-4.461,0.349"/>
			</g>
			<g>
				<path fill-rule="evenodd" clip-rule="evenodd" fill="#DF3329" d="M16.443,15.706c-0.02,0.197,0.033,0.394,0.187,0.558
					c0.136,0.164,0.322,0.247,0.51,0.247c0.016-0.196-0.05-0.41-0.188-0.574C16.798,15.788,16.612,15.706,16.443,15.706
					 M19.031,14.178c0.051-0.083,0.272-0.147,0.375,0l0.034-0.032c0,0-0.083-0.231-0.256-0.198c0,0,0.104-0.279,0.051-0.31
					c-0.051-0.018-0.254,0.196-0.254,0.196c-0.053-0.164-0.309-0.164-0.309-0.164v0.065c0.171,0.017,0.207,0.247,0.154,0.329
					C18.809,14.112,18.996,14.226,19.031,14.178z M18.825,14.901c0.187-0.296,0.187-0.625,0.034-0.706
					c-0.152-0.083-0.442,0.065-0.628,0.362c-0.206,0.279-0.155,0.525,0,0.607C18.383,15.262,18.621,15.196,18.825,14.901z
					 M14.295,15.706c0.017,0.197-0.034,0.394-0.187,0.558c-0.137,0.164-0.323,0.247-0.511,0.247
					c-0.017-0.196,0.052-0.41,0.188-0.574C13.939,15.788,14.125,15.706,14.295,15.706z M11.706,14.178
					c-0.051-0.083-0.273-0.147-0.375,0l-0.033-0.032c0,0,0.084-0.231,0.256-0.198c0,0-0.102-0.279-0.052-0.31
					c0.052-0.018,0.254,0.196,0.254,0.196c0.052-0.164,0.308-0.164,0.308-0.164v0.065c-0.171,0.017-0.205,0.247-0.153,0.329
					C11.928,14.112,11.74,14.226,11.706,14.178z M11.912,14.901c-0.187-0.296-0.187-0.625-0.034-0.706
					c0.152-0.083,0.442,0.065,0.63,0.362c0.205,0.279,0.154,0.525,0,0.607C12.354,15.262,12.116,15.196,11.912,14.901z
					 M13.291,17.069c-0.067-0.323,0.111-1.041-0.704-1.611c-0.466,0.537-0.675,0.133-0.675,0.133
					c0.124-0.045,0.423-0.118,0.575-0.346c-0.378,0.21-0.789,0.151-0.968-0.131c-0.188-0.295-0.033-0.723,0.34-0.952
					c0.375-0.231,0.835-0.182,1.021,0.115c0.182,0.286,0.044,0.68-0.304,0.914c0.251,0.021,0.577-0.322,0.577-0.322
					c0.143,0.264-0.118,0.413-0.322,0.485c0.799,0.545,0.802,1.496,0.85,1.731L13.291,17.069z M17.445,17.069
					c0.068-0.323-0.111-1.041,0.706-1.611c0.465,0.537,0.674,0.133,0.674,0.133c-0.124-0.045-0.421-0.118-0.576-0.346
					c0.379,0.21,0.789,0.151,0.969-0.131c0.187-0.295,0.036-0.723-0.34-0.952c-0.375-0.231-0.835-0.182-1.022,0.115
					c-0.182,0.286-0.046,0.68,0.306,0.914c-0.254,0.021-0.58-0.322-0.58-0.322c-0.143,0.264,0.119,0.413,0.322,0.485
					c-0.797,0.545-0.798,1.496-0.85,1.731L17.445,17.069z"/>
			</g>
			<g>
				<path fill-rule="evenodd" clip-rule="evenodd" fill="#2A2724" d="M14.956,9.431c0-0.098,0.067-0.164,0.168-0.164
					c0.086,0,0.154,0.066,0.154,0.164c0,0.082-0.068,0.147-0.154,0.147C15.023,9.579,14.956,9.514,14.956,9.431 M15.737,8.938
					l0.342-0.525L15.55,8.61l-0.187-0.475L15.158,8.61l-0.545-0.198l0.358,0.525H15.737z M15.935,13.744
					c-0.282-0.217,0.034-0.31,0.109-0.238c0.699,0.59,1.329,0.181,1.329,0.181c-0.495-0.166-0.732-0.724-0.732-0.724
					c1.021,0.593,1.804-0.081,1.804-0.081c-0.679,0.115-1.209-0.526-1.209-0.526c1.055,0.246,1.787-0.46,1.787-0.46
					c-0.391,0.033-1.361-0.377-1.361-0.377c1.55-0.048,1.686-1.151,1.703-1.151c-0.427,0.28-1.568,0.148-1.568,0.148
					c1.619-0.574,1.499-1.905,1.499-1.905c-0.343,0.509-1.906,1.002-1.906,1.002c-0.427,0.131-0.767,0.51-0.767,0.952
					c-0.018,0.182-0.189,0.329-0.374,0.329c-0.417,0-0.41-0.603-0.41-0.888c0-0.427-0.017-0.919-0.324-0.919h-0.612
					c-0.112,0-0.301-0.011-0.38,0.083c-0.159,0.184-0.134,0.669-0.063,0.573c0,0,0.238-0.066,0.391,0
					c0.198,0.057,0.052,0.672,0.052,0.805c0,0.18-0.171,0.345-0.376,0.345c-0.187,0-0.357-0.147-0.375-0.329
					c0-0.442-0.34-0.821-0.747-0.952c0,0-1.602-0.493-1.942-1.002c0,0-0.12,1.346,1.515,1.938c0,0-1.158,0.098-1.583-0.182
					c0.017,0,0.221,1.151,1.771,1.201c0,0-1.021,0.343-1.395,0.296c0,0,0.731,0.838,1.822,0.591c0,0-0.596,0.542-1.278,0.427
					c0,0,0.768,0.689,1.806,0.115c0,0-0.222,0.524-0.715,0.69c0,0,0.629,0.409,1.344-0.181c0.091-0.102,0.382,0.015,0.091,0.238
					c-0.389,0.296-0.944,0.368-1.181,0.862l0.287,0.056c-0.323,0.326-0.753,0.787-0.798,0.798c0,0-0.102-0.148-0.426,0.017
					c-0.171,0.082-0.256,0.295-0.136,0.378c0,0-0.051,0.263,0.256,0.247c0,0,0.119,0.214,0.375,0.049
					c0.238-0.166-0.018-0.115-0.052-0.18c-0.034-0.051,0.018-0.034,0.018-0.034c0.119-0.017,0.273-0.148,0.17-0.263
					c-0.011-0.021,0.554-0.374,0.969-0.628l0.054,0.265c0.143-0.191,0.352-0.321,0.592-0.393c-0.256,0.35-0.412,0.753-0.319,1.314
					c0,0,0.067-0.213,0.408-0.248c0,0-0.477,0.576,0.289,1.693c0.765-1.117,0.324-1.693,0.324-1.693
					c0.339,0.035,0.424,0.248,0.424,0.248c0.077-0.568-0.07-0.972-0.34-1.324c0.247,0.069,0.444,0.203,0.596,0.403l0.054-0.271
					c0.412,0.255,0.978,0.613,0.968,0.634c-0.104,0.114,0.066,0.245,0.169,0.263c0,0,0.034-0.017,0.018,0.034
					c-0.035,0.064-0.291,0.014-0.052,0.18c0.24,0.164,0.375-0.049,0.375-0.049c0.306,0.017,0.257-0.247,0.257-0.247
					c0.117-0.083,0.033-0.296-0.156-0.378c-0.323-0.165-0.425-0.017-0.425-0.017c-0.034-0.011-0.461-0.472-0.777-0.798l0.281-0.055
					C16.859,14.134,16.307,14.028,15.935,13.744z"/>
			</g>
			<g>
				<g>
					<path fill="#FFD334" d="M9.757,8.554C9.527,8.636,9.284,8.543,9.149,8.513c0,0-0.045,0.379,0.532,0.257
						C9.653,9.07,9.834,9.293,9.915,9.588c-0.041-0.05-0.093-0.096-0.154-0.138C9.59,9.351,9.386,9.319,9.199,9.351
						c0.016,0.148,0.102,0.311,0.273,0.412C9.616,9.86,9.786,9.898,9.948,9.886c-0.006,0.144-0.044,0.308-0.136,0.499l0.272,0.215
						c0.137-0.264,0.171-0.871-0.033-1.297c-0.14-0.292-0.168-0.405-0.15-0.516c0.187,0.068,0.559,0.161,0.609-0.158
						c0,0-0.417,0.068-0.61-0.066c0.378-0.01,0.697-0.233,0.729-0.526c0.017-0.312-0.29-0.591-0.698-0.607
						c-0.408-0.033-0.767,0.197-0.8,0.508C9.114,8.233,9.384,8.497,9.757,8.554z M9.931,7.446c0.153,0.016,0.273,0.278,0.255,0.607
						c-0.017,0.312-0.187,0.477-0.34,0.46c-0.17-0.016-0.306-0.198-0.29-0.509C9.574,7.675,9.762,7.429,9.931,7.446z"/>
					<path fill="#FFD334" d="M15.958,7.1c-0.101,0.116,0.019,0.297,0.019,0.297h0.049C15.977,7.233,16.129,7.1,16.233,7.1
						c0.05,0,0.05-0.197,0-0.197c-0.086,0-0.256-0.131-0.171-0.278L16.01,6.608c0,0-0.136,0.18-0.033,0.295
						c0,0-0.291,0.05-0.291,0.098C15.686,7.052,15.958,7.1,15.958,7.1z"/>
					<path fill="#FFD334" d="M9.829,7.315c0,0.049,0.206,0.067,0.223,0.017c0-0.082,0.152-0.23,0.305-0.165l0.017-0.032
						c0,0-0.17-0.149-0.307-0.05c0,0-0.032-0.262-0.085-0.262c-0.05-0.017-0.135,0.247-0.135,0.247
						C9.744,6.97,9.54,7.084,9.54,7.084l0.016,0.05C9.709,7.068,9.829,7.233,9.829,7.315z"/>
					<path fill="#FFD334" d="M20.77,7.331c0,0.05,0.221,0.033,0.221-0.017c-0.016-0.082,0.12-0.247,0.274-0.18l0.017-0.05
						c0,0-0.205-0.114-0.307-0.016c0,0-0.085-0.263-0.136-0.247c-0.052,0-0.088,0.262-0.088,0.262
						c-0.134-0.098-0.305,0.05-0.305,0.05l0.018,0.032C20.617,7.101,20.77,7.249,20.77,7.331z"/>
					<path fill="#FFD334" d="M21.016,12.16c0-0.083,0.152-0.231,0.305-0.165l0.019-0.05c0,0-0.172-0.132-0.307-0.034
						c0,0-0.033-0.263-0.087-0.263c-0.048-0.017-0.135,0.246-0.135,0.246c-0.101-0.097-0.304,0.017-0.304,0.017l0.017,0.05
						c0.15-0.066,0.287,0.099,0.27,0.18C20.793,12.191,21.016,12.207,21.016,12.16z"/>
					<path fill="#FFD334" d="M20.921,8.563c-0.194,0.133-0.609,0.066-0.609,0.066c0.048,0.317,0.421,0.226,0.607,0.158
						c0.015,0.111-0.01,0.224-0.149,0.516c-0.222,0.426-0.169,1.034-0.034,1.297l0.273-0.215c-0.096-0.191-0.136-0.356-0.145-0.499
						C21.029,9.9,21.2,9.862,21.351,9.763c0.15-0.101,0.254-0.264,0.271-0.412c-0.188-0.032-0.393,0-0.563,0.098
						c-0.071,0.049-0.129,0.102-0.172,0.16c0.074-0.306,0.27-0.531,0.247-0.839c0.585,0.124,0.538-0.257,0.538-0.257
						c-0.134,0.03-0.38,0.123-0.608,0.042c0.372-0.058,0.642-0.322,0.624-0.617c-0.032-0.312-0.391-0.541-0.798-0.508
						c-0.41,0.017-0.717,0.295-0.7,0.607C20.224,8.33,20.541,8.553,20.921,8.563z M20.89,7.446c0.169-0.017,0.357,0.229,0.375,0.558
						c0.017,0.312-0.138,0.493-0.29,0.509c-0.171,0.017-0.342-0.148-0.358-0.46C20.601,7.724,20.736,7.462,20.89,7.446z"/>
					<path fill="#FFD334" d="M10.294,11.961l0.015-0.05c0,0-0.204-0.113-0.306-0.017c0,0-0.085-0.263-0.136-0.246
						c-0.051,0-0.084,0.263-0.084,0.263c-0.137-0.098-0.307,0.034-0.307,0.034l0.017,0.05c0.153-0.066,0.307,0.082,0.307,0.165
						c0.016,0.047,0.22,0.031,0.22-0.019C10.004,12.061,10.14,11.895,10.294,11.961z"/>
					<path fill="#FFD334" d="M14.562,7.1c0.103,0,0.256,0.133,0.205,0.297h0.051c0,0,0.119-0.181,0.017-0.297
						c0,0,0.271-0.048,0.271-0.099c0-0.048-0.289-0.098-0.289-0.098c0.101-0.115-0.035-0.295-0.035-0.295l-0.051,0.017
						c0.086,0.147-0.083,0.278-0.17,0.278C14.512,6.903,14.512,7.1,14.562,7.1z"/>
					<path fill="#FFD334" d="M9.766,15.427l0.273-0.212c-0.392-0.814,0.178-1.104,0.129-1.617c0.579,0.122,0.535-0.256,0.535-0.256
						c-0.142,0.029-0.4,0.131-0.639,0.029c0.386-0.034,0.671-0.305,0.655-0.604c-0.034-0.313-0.392-0.543-0.801-0.528
						c-0.409,0.034-0.714,0.314-0.698,0.626c0.033,0.298,0.363,0.522,0.749,0.512c-0.184,0.151-0.63,0.079-0.63,0.079
						c0.051,0.317,0.422,0.226,0.61,0.159c0.016,0.112-0.012,0.223-0.149,0.514c-0.025,0.051-0.045,0.104-0.063,0.158
						C9.722,14.182,9.664,14.076,9.56,14c-0.134-0.132-0.322-0.199-0.51-0.182c-0.035,0.148,0.017,0.312,0.154,0.443
						c0.128,0.124,0.315,0.189,0.491,0.183C9.616,14.815,9.661,15.224,9.766,15.427z M9.664,12.881
						c-0.018-0.329,0.102-0.591,0.254-0.608c0.171-0.015,0.358,0.23,0.376,0.559c0.015,0.312-0.12,0.492-0.291,0.51
						C9.851,13.358,9.68,13.193,9.664,12.881z"/>
					<path fill="#FFD334" d="M9.81,16.973c0.017,0.033,0.204-0.082,0.17-0.114c-0.052-0.082-0.017-0.281,0.154-0.314l-0.017-0.048
						c0,0-0.22,0-0.273,0.147c0,0-0.186-0.196-0.238-0.164c-0.052,0.034,0.069,0.279,0.069,0.279
						c-0.171-0.033-0.256,0.182-0.256,0.182l0.033,0.033C9.554,16.824,9.758,16.891,9.81,16.973z"/>
					<path fill="#FFD334" d="M21.146,16.759c0,0,0.104-0.245,0.069-0.279c-0.051-0.032-0.237,0.164-0.237,0.164
						c-0.054-0.147-0.274-0.147-0.274-0.147l-0.015,0.048c0.168,0.033,0.187,0.231,0.134,0.314
						c-0.016,0.032,0.171,0.147,0.188,0.114c0.052-0.082,0.257-0.149,0.342,0l0.05-0.033C21.402,16.94,21.316,16.726,21.146,16.759z
						"/>
					<path fill="#FFD334" d="M19.604,7.429l-0.206-0.278c-0.206,0.075-0.378,0.098-0.528,0.093c0.028-0.148,0.004-0.317-0.084-0.472
						c-0.086-0.164-0.24-0.263-0.408-0.294c-0.053,0.181-0.038,0.377,0.067,0.542c0.036,0.068,0.083,0.128,0.139,0.175
						c-0.299-0.094-0.513-0.291-0.818-0.302c0.151-0.545-0.242-0.531-0.242-0.531c0.017,0.122,0.105,0.382-0.015,0.603
						c-0.007-0.371-0.254-0.668-0.564-0.668c-0.34,0-0.611,0.312-0.611,0.705c-0.017,0.396,0.237,0.723,0.561,0.723
						c0.329,0,0.595-0.292,0.612-0.668c0.14,0.188,0.035,0.603,0.035,0.603c0.314-0.012,0.257-0.39,0.214-0.568
						c0.105,0.004,0.23,0.043,0.502,0.189C18.683,7.528,19.316,7.528,19.604,7.429z M16.946,7.315
						c-0.322-0.017-0.578-0.148-0.593-0.313c0-0.147,0.271-0.312,0.611-0.312c0.324,0.017,0.495,0.181,0.495,0.33
						C17.475,7.183,17.287,7.331,16.946,7.315z"/>
					<path fill="#FFD334" d="M21.781,13.818c-0.205-0.017-0.391,0.05-0.526,0.182c-0.092,0.075-0.152,0.181-0.171,0.287
						c-0.02-0.054-0.042-0.106-0.068-0.157c-0.138-0.291-0.166-0.403-0.15-0.514c0.186,0.066,0.558,0.159,0.609-0.159
						c0,0-0.446,0.072-0.63-0.079c0.387,0.01,0.716-0.214,0.749-0.512c0.017-0.313-0.291-0.592-0.697-0.626
						c-0.41-0.015-0.766,0.215-0.802,0.528c-0.018,0.3,0.268,0.57,0.655,0.604c-0.24,0.101-0.496,0-0.619-0.029
						c0,0-0.062,0.379,0.518,0.256c-0.036,0.512,0.535,0.8,0.128,1.617l0.27,0.212c0.106-0.203,0.161-0.612,0.078-0.983
						c0.177,0.004,0.36-0.062,0.486-0.183C21.748,14.13,21.798,13.965,21.781,13.818z M20.523,12.832
						c0.015-0.329,0.202-0.574,0.375-0.559c0.15,0.017,0.289,0.279,0.27,0.608c-0.016,0.312-0.185,0.477-0.357,0.461
						C20.659,13.324,20.506,13.144,20.523,12.832z"/>
					<path fill="#FFD334" d="M20.876,16.99c-0.342-0.213-0.767-0.181-0.938,0.082c-0.18,0.254-0.061,0.627,0.252,0.846
						c-0.235,0.009-0.542-0.289-0.542-0.289c-0.154,0.273,0.203,0.415,0.39,0.468c-0.057,0.101-0.151,0.175-0.442,0.322
						c-0.441,0.213-0.782,0.723-0.851,1.018l0.358-0.016c0.043-0.207,0.113-0.358,0.196-0.475c0.125,0.101,0.275,0.165,0.452,0.178
						c0.203,0.018,0.374-0.064,0.492-0.18c-0.135-0.132-0.306-0.23-0.511-0.23c-0.08-0.006-0.155-0.001-0.226,0.018
						c0.248-0.19,0.537-0.261,0.715-0.519c0.389,0.424,0.585,0.09,0.585,0.09c-0.124-0.043-0.39-0.117-0.528-0.329
						c0.345,0.192,0.724,0.137,0.903-0.114C21.353,17.597,21.215,17.202,20.876,16.99z M20.806,17.662
						c-0.187,0.264-0.41,0.328-0.545,0.246c-0.152-0.081-0.188-0.311,0-0.575c0.188-0.262,0.461-0.393,0.596-0.312
						C20.993,17.104,20.993,17.4,20.806,17.662z"/>
					<path fill="#FFD334" d="M11.223,18.419c-0.289-0.147-0.383-0.22-0.44-0.322c0.184-0.053,0.542-0.196,0.389-0.468
						c0,0-0.32,0.309-0.556,0.286c0.328-0.217,0.446-0.589,0.266-0.843c-0.17-0.263-0.595-0.295-0.936-0.082
						c-0.341,0.213-0.478,0.608-0.307,0.87c0.182,0.256,0.575,0.31,0.911,0.098c-0.133,0.224-0.408,0.299-0.537,0.345
						c0,0,0.196,0.334,0.588-0.09c0.176,0.257,0.467,0.329,0.71,0.519c-0.068-0.019-0.142-0.024-0.224-0.018
						c-0.205,0-0.393,0.098-0.512,0.23c0.103,0.115,0.289,0.198,0.495,0.18c0.16-0.013,0.321-0.076,0.45-0.178
						c0.083,0.117,0.152,0.267,0.196,0.475l0.358,0.016C12.007,19.141,11.667,18.632,11.223,18.419z M10.56,17.908
						c-0.136,0.082-0.359,0.018-0.546-0.246c-0.187-0.263-0.187-0.559-0.051-0.641c0.137-0.081,0.409,0.05,0.597,0.312
						C10.73,17.597,10.695,17.827,10.56,17.908z"/>
					<path fill="#FFD334" d="M13.898,7.724c0.323,0,0.579-0.328,0.563-0.723c0-0.393-0.273-0.705-0.614-0.705
						c-0.308,0-0.554,0.297-0.561,0.668c-0.12-0.222-0.033-0.482-0.017-0.603c0,0-0.391-0.013-0.24,0.531
						C12.721,6.904,12.509,7.1,12.21,7.194c0.055-0.047,0.103-0.107,0.136-0.175c0.104-0.165,0.12-0.361,0.069-0.542
						c-0.171,0.031-0.324,0.131-0.409,0.294c-0.089,0.155-0.113,0.324-0.086,0.472c-0.147,0.005-0.319-0.018-0.527-0.093
						L11.19,7.429c0.289,0.098,0.919,0.098,1.345-0.149c0.272-0.145,0.396-0.185,0.502-0.189c-0.043,0.178-0.098,0.556,0.215,0.568
						c0,0-0.103-0.415,0.034-0.603C13.302,7.433,13.568,7.724,13.898,7.724z M13.336,7.02c0-0.149,0.17-0.313,0.493-0.33
						c0.34,0,0.613,0.165,0.613,0.312c-0.017,0.165-0.273,0.296-0.596,0.313C13.506,7.331,13.319,7.183,13.336,7.02z"/>
					<path fill="#FFD334" d="M15.934,19.273c-0.303,0.083-0.427,0.089-0.543,0.059c0.092-0.163,0.232-0.497-0.087-0.584
						c0,0,0.013,0.407-0.159,0.558c0.052-0.368-0.131-0.696-0.438-0.774c-0.323-0.064-0.646,0.198-0.732,0.591
						c-0.068,0.38,0.119,0.74,0.442,0.821c0.313,0.063,0.625-0.178,0.707-0.535c0.063,0.24-0.081,0.465-0.127,0.585
						c0,0,0.388,0.115,0.353-0.448c0.308,0.059,0.568-0.085,0.881-0.121c-0.064,0.032-0.127,0.073-0.178,0.125
						c-0.12,0.149-0.189,0.346-0.189,0.527c0.169,0,0.342-0.067,0.477-0.215c0.116-0.111,0.182-0.273,0.189-0.429
						c0.149,0.024,0.308,0.085,0.493,0.199l0.272-0.23C17.039,19.239,16.41,19.124,15.934,19.273z M15.098,19.339
						c-0.034,0.164-0.255,0.279-0.579,0.212c-0.324-0.064-0.544-0.278-0.51-0.427c0.035-0.148,0.323-0.229,0.665-0.18
						C14.997,19.011,15.133,19.19,15.098,19.339z"/>
					<path fill="#FFD334" d="M13.907,18.993c-0.086-0.017-0.222-0.181-0.119-0.312l-0.052-0.034c0,0-0.169,0.148-0.085,0.296
						c0,0-0.271,0-0.291,0.032c-0.015,0.05,0.256,0.166,0.256,0.166c-0.136,0.098-0.05,0.296-0.05,0.296h0.05
						c-0.034-0.164,0.154-0.264,0.254-0.247C13.907,19.206,13.957,19.011,13.907,18.993z"/>
				</g>
			</g>
		</g>
	</g>
</g>
</svg>
